<?xml version="1.0" encoding="utf-8"?>
<!-- Generator: Adobe Illustrator 15.0.0, SVG Export Plug-In  -->
<!DOCTYPE svg PUBLIC "-//W3C//DTD SVG 1.1//EN" "http://www.w3.org/Graphics/SVG/1.1/DTD/svg11.dtd" [
	<!ENTITY ns_flows "http://ns.adobe.com/Flows/1.0/">
]>
<svg version="1.1"
	 xmlns="http://www.w3.org/2000/svg" xmlns:xlink="http://www.w3.org/1999/xlink" xmlns:a="http://ns.adobe.com/AdobeSVGViewerExtensions/3.0/"
	 x="0px" y="0px" width="608px" height="384px" viewBox="1168.155 1266.322 608 384"
	 overflow="visible" enable-background="new 1168.155 1266.322 608 384" xml:space="preserve">
<defs>
</defs>
<path fill-rule="evenodd" clip-rule="evenodd" fill="#3B2221" d="M1692.687,1481.861l-7.155-18.944c-0.885-2.335-0.885-4.853,0-7.19
	l7.142-18.887c1.707-4.513,0.778-9.474-2.493-13.326l-13.691-16.134c-1.688-1.995-2.612-4.394-2.634-6.841l-0.154-19.681
	c-0.035-4.737-2.739-9.209-7.27-12.024l-18.823-11.707c-2.345-1.457-4.104-3.498-5.027-5.821l-7.639-19.291
	c-1.781-4.496-6.004-8.045-11.347-9.544l-22.949-6.437c-2.762-0.776-5.189-2.255-6.922-4.228l-13.915-15.831
	c-3.348-3.81-8.669-6.087-14.303-6.122l-23.419-0.141c-2.916-0.017-5.766-0.795-8.141-2.218l-19.246-11.544
	c-4.587-2.752-10.484-3.534-15.854-2.1l-22.539,6.013c-2.779,0.743-5.775,0.741-8.555,0l-22.469-6.003
	c-5.37-1.437-11.268-0.656-15.854,2.096l-19.197,11.508c-2.371,1.42-5.223,2.197-8.139,2.214l-23.41,0.131
	c-5.639,0.03-10.96,2.305-14.312,6.112l-13.924,15.819c-1.732,1.97-4.156,3.45-6.922,4.222l-22.953,6.425
	c-5.348,1.497-9.57,5.045-11.355,9.537l-7.657,19.287c-0.919,2.326-2.683,4.363-5.026,5.816l-18.837,11.697
	c-4.534,2.812-7.243,7.288-7.283,12.024l-0.167,19.685c-0.021,2.45-0.945,4.844-2.639,6.841l-13.739,16.178
	c-3.272,3.853-4.2,8.811-2.494,13.325l7.156,18.944c0.879,2.333,0.879,4.854-0.005,7.19l-7.143,18.888
	c-1.706,4.512-0.778,9.473,2.494,13.325l13.69,16.136c1.693,1.994,2.617,4.393,2.635,6.84l0.154,19.682
	c0.039,4.736,2.744,9.209,7.273,12.023l18.819,11.707c2.344,1.457,4.107,3.496,5.027,5.818l7.644,19.293
	c1.776,4.496,5.998,8.043,11.347,9.545l22.944,6.434c2.766,0.775,5.189,2.258,6.922,4.227l13.915,15.834
	c3.352,3.809,8.673,6.086,14.307,6.121l23.419,0.141c2.912,0.018,5.764,0.797,8.139,2.217l19.246,11.549
	c4.587,2.75,10.484,3.531,15.858,2.098l22.535-6.016c2.779-0.738,5.775-0.738,8.555,0l22.469,6.008
	c5.37,1.434,11.268,0.654,15.854-2.098l19.197-11.51c2.375-1.42,5.225-2.195,8.137-2.213l23.415-0.131
	c5.633-0.031,10.955-2.305,14.311-6.113l13.92-15.82c1.732-1.971,4.16-3.447,6.927-4.223l22.952-6.424
	c5.344-1.496,9.57-5.043,11.352-9.535l7.657-19.289c0.923-2.324,2.683-4.363,5.031-5.816l18.836-11.697
	c4.53-2.818,7.239-7.287,7.279-12.023l0.171-19.686c0.022-2.449,0.945-4.844,2.639-6.842l13.735-16.178
	C1693.461,1491.335,1694.393,1486.376,1692.687,1481.861z"/>
<path fill="#F0E9D3" d="M1684.221,1484.122l-7.156-18.944c-1.446-3.833-1.446-7.883,0-11.714l7.143-18.885
	c0.862-2.273,0.392-4.789-1.258-6.729l-13.695-16.136c-2.771-3.272-4.248-7.116-4.283-11.127l-0.154-19.681
	c-0.018-2.384-1.39-4.653-3.672-6.071l-18.814-11.704c-3.84-2.384-6.668-5.658-8.176-9.463l-7.645-19.293
	c-0.893-2.263-3.034-4.065-5.73-4.82l-22.948-6.436c-4.525-1.272-8.418-3.648-11.25-6.872l-13.915-15.833
	c-1.689-1.92-4.39-3.074-7.227-3.091l-23.414-0.141c-4.771-0.028-9.351-1.275-13.238-3.607l-19.25-11.547
	c-2.27-1.361-5.321-1.772-8.004-1.06l-22.535,6.011c-4.513,1.208-9.43,1.207-13.933,0.002l-22.479-6.005
	c-2.669-0.709-5.726-0.299-8,1.059l-19.201,11.512c-3.888,2.328-8.462,3.573-13.231,3.601l-23.419,0.131
	c-2.832,0.015-5.533,1.168-7.222,3.087l-13.92,15.817c-2.841,3.228-6.737,5.601-11.263,6.867l-22.953,6.424
	c-2.691,0.754-4.838,2.554-5.735,4.815l-7.656,19.287c-1.509,3.807-4.337,7.077-8.176,9.46l-18.841,11.702
	c-2.278,1.414-3.65,3.683-3.673,6.067l-0.167,19.685c-0.035,4.011-1.521,7.855-4.292,11.127l-13.739,16.176
	c-1.649,1.939-2.12,4.46-1.258,6.729l7.155,18.944c1.447,3.833,1.447,7.882-0.005,11.714l-7.142,18.885
	c-0.857,2.274-0.388,4.79,1.262,6.729l13.687,16.132c2.775,3.268,4.257,7.115,4.288,11.131l0.154,19.682
	c0.021,2.383,1.394,4.652,3.672,6.072l18.819,11.705c3.839,2.383,6.663,5.654,8.171,9.461l7.644,19.297
	c0.897,2.26,3.039,4.061,5.731,4.816l22.943,6.434c4.53,1.271,8.422,3.648,11.259,6.873l13.915,15.834
	c1.689,1.922,4.39,3.074,7.222,3.092l23.415,0.141c4.773,0.025,9.353,1.275,13.24,3.605l19.25,11.549
	c1.521,0.91,3.395,1.412,5.277,1.412c0.924,0,1.843-0.119,2.727-0.352l22.535-6.012c4.513-1.209,9.425-1.209,13.938-0.004
	l22.474,6.006c2.669,0.713,5.726,0.305,8-1.059l19.197-11.51c3.883-2.326,8.461-3.576,13.237-3.602l23.415-0.133
	c2.837-0.014,5.537-1.166,7.226-3.088l13.92-15.816c2.841-3.227,6.733-5.602,11.263-6.867l22.953-6.424
	c2.691-0.754,4.834-2.553,5.73-4.812l7.657-19.291c1.509-3.803,4.336-7.076,8.176-9.459l18.832-11.695
	c2.287-1.422,3.664-3.691,3.686-6.072l0.167-19.689c0.035-4.012,1.521-7.855,4.293-11.123l13.734-16.174
	C1684.607,1488.911,1685.078,1486.392,1684.221,1484.122z M1681.582,1490.028l-13.735,16.177c-2.973,3.502-4.565,7.631-4.604,11.936
	l-0.167,19.688c-0.018,1.938-1.14,3.785-3,4.941l-18.832,11.697c-4.121,2.557-7.155,6.066-8.773,10.152l-7.657,19.287
	c-0.73,1.84-2.477,3.305-4.662,3.918l-22.957,6.424c-4.859,1.359-9.038,3.904-12.086,7.371l-13.919,15.818
	c-1.372,1.557-3.571,2.498-5.876,2.508l-23.419,0.131c-5.128,0.031-10.041,1.369-14.206,3.867l-19.197,11.51
	c-1.847,1.107-4.34,1.441-6.509,0.861l-22.474-6.004c-4.838-1.293-10.115-1.293-14.957,0l-22.535,6.012
	c-2.186,0.576-4.671,0.248-6.514-0.861l-19.25-11.549c-4.169-2.498-9.082-3.84-14.207-3.871l-23.415-0.141
	c-2.31-0.012-4.504-0.953-5.876-2.51l-13.915-15.834c-3.048-3.465-7.226-6.016-12.086-7.379l-22.939-6.432
	c-2.19-0.617-3.937-2.084-4.662-3.922l-7.644-19.293c-1.623-4.088-4.653-7.6-8.773-10.16l-18.814-11.703
	c-1.856-1.154-2.974-2.998-2.991-4.941l-0.154-19.678c-0.03-4.311-1.622-8.441-4.604-11.949l-13.687-16.131
	c-1.341-1.578-1.724-3.626-1.024-5.473l7.143-18.89c1.557-4.107,1.557-8.457,0.004-12.569l-7.155-18.941
	c-0.699-1.852-0.316-3.897,1.024-5.479l13.735-16.178c2.978-3.507,4.569-7.635,4.608-11.936l0.168-19.685
	c0.018-1.944,1.135-3.787,2.986-4.939l18.841-11.701c4.12-2.557,7.155-6.068,8.778-10.153l7.656-19.286
	c0.73-1.841,2.472-3.306,4.666-3.92l22.949-6.424c4.859-1.356,9.037-3.905,12.086-7.37l13.919-15.819
	c1.377-1.559,3.571-2.498,5.88-2.509l23.415-0.132c5.121-0.031,10.034-1.366,14.203-3.863l19.202-11.511
	c1.235-0.744,2.762-1.151,4.292-1.151c0.757,0,1.5,0.096,2.217,0.288l22.474,6.005c4.842,1.295,10.119,1.293,14.962-0.002
	l22.53-6.011c2.186-0.577,4.671-0.244,6.514,0.863l19.25,11.547c4.169,2.5,9.082,3.839,14.21,3.87l23.415,0.141
	c2.304,0.013,4.503,0.953,5.875,2.514l13.915,15.833c3.039,3.46,7.218,6.011,12.077,7.375l22.948,6.435
	c2.19,0.616,3.933,2.083,4.662,3.922l7.644,19.294c1.619,4.086,4.653,7.599,8.77,10.158l18.819,11.703
	c1.855,1.152,2.973,3,2.986,4.939l0.153,19.683c0.035,4.301,1.628,8.431,4.601,11.938l13.69,16.139
	c1.342,1.576,1.725,3.626,1.025,5.474l-7.143,18.889c-1.553,4.107-1.553,8.457,0,12.569l7.155,18.942
	C1683.31,1486.4,1682.923,1488.447,1681.582,1490.028z"/>
<ellipse fill-rule="evenodd" clip-rule="evenodd" fill="#F0E9D3" cx="1472.031" cy="1459.322" rx="186.013" ry="156.354"/>
<g>
	<defs>
		<ellipse id="SVGID_1_" cx="1472.031" cy="1459.322" rx="186.013" ry="156.354"/>
	</defs>
	<clipPath id="SVGID_2_">
		<use xlink:href="#SVGID_1_"  overflow="visible"/>
	</clipPath>
	<g opacity="0.07" clip-path="url(#SVGID_2_)">
		<path fill="#731116" d="M1470.74,1465.943C1871.132,977.302,2271.534,488.648,2671.936,0h-102.861
			c-366.259,488.576-732.518,977.157-1098.775,1465.734h-0.249c119.641,488.648,239.268,977.281,358.895,1465.936h73.708
			c-144.045-488.574-288.076-977.152-432.118-1465.727H1470.74z"/>
		<path fill="#731116" d="M2449.865,0h-91.359c-296.521,488.654-593.07,977.302-889.593,1465.943h0.223
			c66.42,488.574,132.841,977.152,199.261,1465.727h71.291c-90.04-488.627-180.095-977.238-270.147-1465.856
			C1796.315,977.204,2123.092,488.609,2449.865,0z"/>
		<path fill="#731116" d="M1465.296,1465.943C1555.352,977.302,1645.391,488.654,1735.457,0h-71.315
			c-66.409,488.654-132.841,977.296-199.264,1465.943H1465.296z"/>
		<path fill="#731116" d="M1466.237,1465.943C1610.306,977.302,1754.363,488.654,1898.408,0h-73.695
			c-119.652,488.648-239.279,977.296-358.894,1465.943H1466.237z"/>
		<path fill="#731116" d="M2069.061,0h-77.557c-174.925,488.648-349.82,977.302-524.717,1465.943h0.441
			c0.026-0.04,0.04-0.079,0.053-0.126c-37.564,488.614-75.114,977.226-112.667,1465.853h70.154
			c14.312-488.654,28.609-977.287,42.944-1465.936h-0.392C1667.901,977.157,1868.479,488.576,2069.061,0z"/>
		<path fill="#731116" d="M1473.406,1465.734h-0.262c0.039,0.053,0.053,0.097,0.092,0.149c-0.013,0.02-0.039,0.033-0.065,0.06h0.103
			c296.512,488.574,592.98,977.152,889.463,1465.727h91.373c-326.763-488.574-653.512-977.152-980.285-1465.727h0.169
			c485.886-405.117,971.786-810.221,1457.671-1215.33V142.262C2445.568,583.42,1959.474,1024.581,1473.406,1465.734z"/>
		<path fill="#731116" d="M1500.759,1465.943c476.981,127.578,953.95,255.156,1430.905,382.742v-76.859
			c-474.879-104.193-949.771-201.912-1424.662-306.092h-3.266c475.977-104.423,951.951-202.389,1427.928-306.812v-77.074
			c-478.626,128.023-957.279,256.065-1435.879,384.095H1500.759z"/>
		<path fill="#731116" d="M1522.853,1465.943c469.617,75.135,939.208,150.266,1408.812,225.414v-89.166
			c-462.252-51.514-924.506-84.928-1386.771-136.457h-2.324c463.036-51.621,926.059-85.132,1389.096-136.72v-89.36
			c-471.457,75.423-942.917,150.853-1414.375,226.289H1522.853z"/>
		<path fill="#731116" d="M1482.272,1465.943c483.13,296.145,966.26,592.285,1449.392,888.443v-82.482
			c-482.714-268.695-965.426-537.389-1448.139-806.073c482.713-211.646,965.425-423.271,1448.139-634.897v-76.05
			c-483.497,237.029-966.968,474.044-1450.452,711.06H1482.272z"/>
		<path fill="#731116" d="M1641.696,1465.943c429.989,21.739,859.979,25.387,1289.968,47.123v-47.123v-0.209v-47.331
			c-432.784,21.875-865.553,25.655-1298.337,47.54H1641.696z"/>
		<path fill="#731116" d="M1475.966,1465.943c445.475,488.574,890.936,977.152,1336.397,1465.727h119.301v-0.105
			c-485.049-488.602-970.128-977.195-1455.164-1465.811c485.036-332.945,970.115-665.889,1455.164-998.833v-93.004
			c-485.493,364.007-971.003,728.013-1456.508,1092.027H1475.966z"/>
		<path fill="#731116" d="M1457.294,1465.943C1090.97,977.296,724.665,488.648,358.347,0H255.485
			c400.401,488.648,800.812,977.302,1201.208,1465.943H1457.294z"/>
		<path fill="#731116" d="M1446.222,1465.943C964.16,1229.613,482.075,993.284,0,756.966v75.814
			c481.239,210.987,962.449,421.961,1443.688,632.954h-1.919C961.183,1623.004,480.579,1780.281,0,1937.551v72.152
			c481.538-181.248,963.076-362.498,1444.614-543.76H1446.222z"/>
		<path fill="#731116" d="M1440.96,1465.943C960.629,1285.15,480.312,1104.357,0,923.566v71.938
			c479.169,156.813,958.338,313.606,1437.512,470.44H1440.96z"/>
		<path fill="#731116" d="M1461.615,1465.943C1341.975,977.296,1222.36,488.654,1102.728,0h-73.715
			c144.045,488.583,288.076,977.157,432.118,1465.734h-0.206c-400.398,488.648-800.794,977.281-1201.189,1465.936h102.855
			c366.265-488.574,732.517-977.152,1098.775-1465.727H1461.615z"/>
		<path fill="#731116" d="M1460.205,1465.943h0.432C1285.74,977.296,1110.842,488.648,935.932,0h-77.564
			c200.574,488.576,401.152,977.157,601.746,1465.734h-0.601C1226.174,977.157,992.819,488.576,759.468,0h-83.251
			c260.969,488.648,521.951,977.296,782.918,1465.943h0.105C974.201,1954.518,489.171,2443.096,4.14,2931.67h119.399
			c445.52-488.627,891.053-977.275,1336.574-1465.916C1460.14,1465.813,1460.179,1465.884,1460.205,1465.943z"/>
		<path fill="#731116" d="M1454.264,1465.943C969.509,1025.997,484.751,586.053,0,146.126v108.027
			c484.399,403.862,968.783,807.711,1453.18,1211.581h-0.651c-0.105,0.057-0.185,0.109-0.288,0.169
			C968.149,1102.961,484.078,740.039,0,377.096v92.73c483.739,332.03,967.477,664.072,1451.235,996.117h0.926
			C968.104,1735.385,484.052,2004.834,0,2274.256v82.727c484.535-297.023,969.064-594.016,1453.61-891.039H1454.264z"/>
		<path fill="#731116" d="M1458.521,1465.943c-0.04-0.053-0.054-0.1-0.093-0.144c0.013-0.035,0.039-0.046,0.065-0.065h-0.103
			C1161.894,977.157,865.405,488.576,568.915,0h-91.359c326.763,488.576,653.512,977.157,980.286,1465.734h-0.17
			C971.786,1870.846,485.887,2275.953,0,2681.057v108.346c486.096-441.154,972.191-882.301,1458.26-1323.459H1458.521z"/>
		<path fill="#731116" d="M1463.455,1465.734C1449.146,977.157,1434.836,488.576,1420.524,0h-70.154
			c37.565,488.648,75.115,977.296,112.694,1465.943h0.195c-260.94,488.574-521.87,977.152-782.812,1465.727h83.258
			c233.392-488.654,466.764-977.275,700.157-1465.936H1463.455z"/>
		<path fill="#731116" d="M1462.529,1465.734C1396.109,977.157,1329.689,488.576,1263.282,0h-71.292
			c90.027,488.622,180.082,977.243,270.135,1465.864C1135.35,1954.467,808.569,2443.082,481.8,2931.67h91.359
			c296.535-488.654,593.07-977.287,889.593-1465.936H1462.529z"/>
		<path fill="#731116" d="M1466.369,1465.734c-90.055,488.648-180.095,977.281-270.161,1465.936h71.315
			c66.41-488.654,132.841-977.287,199.264-1465.936H1466.369z"/>
		<path fill="#731116" d="M1465.428,1465.734c-144.068,488.648-288.113,977.281-432.175,1465.936h73.71
			c119.629-488.654,239.27-977.287,358.896-1465.936H1465.428z"/>
		<path fill="#731116" d="M1464.437,1465.734c-0.014,0.03-0.04,0.079-0.053,0.116C1501.949,977.236,1539.498,488.622,1577.051,0
			h-70.154c-14.311,488.648-28.609,977.302-42.931,1465.943h0.378c-200.58,488.574-401.158,977.152-601.732,1465.727h77.557
			c174.918-488.654,349.814-977.287,524.71-1465.936H1464.437z"/>
		<path fill="#731116" d="M1430.906,1465.734C953.938,1338.149,476.962,1210.569,0,1082.983v76.867
			c474.887,104.187,949.772,201.905,1424.663,306.093h3.278C951.958,1570.371,475.978,1668.318,0,1772.752v77.07
			c478.64-128.021,957.267-256.045,1435.88-384.088H1430.906z"/>
		<path fill="#731116" d="M1408.812,1465.734C939.202,1390.59,469.598,1315.469,0,1240.32v89.159
			c462.26,51.522,924.506,84.942,1386.772,136.465h2.324C926.055,1517.564,463.03,1551.068,0,1602.668v89.355
			c471.459-75.43,942.91-150.859,1414.376-226.289H1408.812z"/>
		<path fill="#731116" d="M1449.393,1465.734C966.263,1169.59,483.14,873.434,0,577.291v82.481
			c482.715,268.685,965.427,537.375,1448.14,806.072C965.427,1677.49,482.715,1889.104,0,2100.744v76.027
			c483.484-237.014,966.976-474.021,1450.453-711.037H1449.393z"/>
		<path fill="#731116" d="M1289.969,1465.734C859.966,1443.995,429.99,1440.352,0,1418.612v47.122v0.209v47.344
			c432.778-21.891,865.556-25.671,1298.338-47.553H1289.969z"/>
		<path fill="#731116" d="M1455.713,1465.734C1010.231,977.157,564.764,488.576,119.295,0H0v0.104
			c485.064,488.601,970.129,977.21,1455.165,1465.812C970.129,1798.861,485.064,2131.811,0,2464.756v93.004
			c485.501-364.012,971.017-728.012,1456.509-1092.025H1455.713z"/>
		<path fill="#731116" d="M1474.371,1465.734c366.324,488.648,732.636,977.281,1098.947,1465.936h102.861
			c-400.401-488.654-800.817-977.287-1201.208-1465.936H1474.371z"/>
		<path fill="#731116" d="M1485.443,1465.734c482.074,236.33,964.146,472.652,1446.221,708.988v-75.828
			c-481.226-210.986-962.449-421.959-1443.688-632.951h1.92c480.599-157.265,961.183-314.554,1441.768-471.824v-72.146
			c-481.537,181.249-963.075,362.498-1444.613,543.761H1485.443z"/>
		<path fill="#731116" d="M1490.705,1465.734c480.338,180.793,960.636,361.576,1440.959,542.375v-71.928
			c-479.174-156.82-958.337-313.621-1437.511-470.447H1490.705z"/>
		<path fill="#731116" d="M1468.405,1465.734C1729.346,977.157,1990.275,488.576,2251.218,0h-83.252
			c-233.392,488.648-466.77,977.296-700.163,1465.943h0.407c14.309,488.574,28.619,977.152,42.931,1465.727h70.154
			c-37.565-488.654-75.115-977.287-112.693-1465.936H1468.405z"/>
		<path fill="#731116" d="M1477.401,1465.734c484.751,439.932,969.513,879.877,1454.263,1319.814v-108.031
			c-484.398-403.85-968.795-807.707-1453.179-1211.574h0.651c0.105-0.06,0.197-0.112,0.288-0.179
			c484.084,362.966,968.169,725.868,1452.239,1088.837v-92.744c-483.732-332.039-967.476-664.074-1451.234-996.123h-0.926
			c484.058-269.443,968.116-538.891,1452.16-808.327v-82.715c-484.541,297.012-969.07,594.01-1453.609,891.042H1477.401z"/>
		<path fill="#731116" d="M1472.425,1465.734C1957.451,977.157,2442.5,488.576,2927.523,0h-119.392
			c-445.54,488.635-891.065,977.276-1336.58,1465.917c-0.026-0.06-0.065-0.117-0.092-0.183h-0.431
			c174.896,488.648,349.794,977.281,524.703,1465.936h77.572c-200.581-488.574-401.159-977.152-601.753-1465.727h0.601
			c233.339,488.574,466.692,977.152,700.045,1465.727h83.251c-260.969-488.654-521.948-977.287-782.918-1465.936H1472.425z"/>
	</g>
</g>
<path d="M1472.031,1610.105c-98.917,0-179.387-67.643-179.387-150.783c0-83.144,80.47-150.782,179.387-150.782
	c98.91,0,179.385,67.638,179.385,150.782C1651.416,1542.463,1570.941,1610.105,1472.031,1610.105z M1472.031,1312.325
	c-96.432,0-174.883,65.942-174.883,146.997s78.451,146.998,174.883,146.998c96.43,0,174.881-65.943,174.881-146.998
	S1568.461,1312.325,1472.031,1312.325z"/>
<path stroke="#000000" stroke-width="1.5483" stroke-miterlimit="10" d="M1579.008,1459.322c0,49.582-47.99,89.922-106.977,89.922
	c-58.99,0-106.982-40.34-106.982-89.922 M1472.031,1369.401 M1472.031,1371.657 M1367.736,1459.322
	c0,48.338,46.787,87.664,104.295,87.664c57.504,0,104.294-39.326,104.294-87.664"/>
<path fill-rule="evenodd" clip-rule="evenodd" fill="#291717" d="M1637.606,1468.628c-1.816-0.097-3.373,1.022-3.527,2.496
	c-0.149,1.471,1.165,2.795,2.973,2.962c1.812,0.165,3.431-0.947,3.589-2.491C1640.799,1470.053,1639.418,1468.723,1637.606,1468.628
	z"/>
<path fill-rule="evenodd" clip-rule="evenodd" fill="#291717" d="M1635.526,1483.309c-1.79-0.255-3.488,0.717-3.817,2.168
	c-0.335,1.451,0.8,2.885,2.577,3.211c1.776,0.325,3.536-0.638,3.883-2.16C1638.521,1485.008,1637.32,1483.563,1635.526,1483.309z"/>
<path fill-rule="evenodd" clip-rule="evenodd" fill="#291717" d="M1631.604,1497.721c-1.755-0.418-3.554,0.4-4.073,1.812
	c-0.519,1.412,0.436,2.941,2.159,3.422c1.725,0.486,3.594-0.314,4.135-1.795C1634.369,1499.678,1633.349,1498.135,1631.604,1497.721
	z"/>
<path fill-rule="evenodd" clip-rule="evenodd" fill="#291717" d="M1625.872,1511.697c-1.685-0.566-3.584,0.08-4.278,1.439
	c-0.687,1.357,0.057,2.961,1.715,3.598c1.649,0.633,3.615,0.008,4.336-1.416C1628.37,1513.893,1627.565,1512.27,1625.872,1511.697z"
	/>
<path fill-rule="evenodd" clip-rule="evenodd" fill="#291717" d="M1618.404,1525.08c-1.601-0.711-3.575-0.236-4.433,1.053
	c-0.862,1.287-0.321,2.947,1.244,3.729c1.566,0.779,3.594,0.328,4.495-1.02C1620.612,1527.488,1620.015,1525.803,1618.404,1525.08z"
	/>
<path fill-rule="evenodd" clip-rule="evenodd" fill="#291717" d="M1609.292,1537.727c-1.509-0.855-3.527-0.559-4.543,0.648
	c-1.021,1.203-0.687,2.908,0.77,3.818c1.46,0.914,3.531,0.646,4.601-0.615C1611.184,1540.316,1610.796,1538.582,1609.292,1537.727z"
	/>
<path fill-rule="evenodd" clip-rule="evenodd" fill="#291717" d="M1594.04,1549.732c-1.165,1.107-1.047,2.83,0.286,3.865
	c1.337,1.039,3.43,0.957,4.648-0.203c1.223-1.16,1.051-2.92-0.334-3.902C1597.246,1548.504,1595.205,1548.623,1594.04,1549.732z"/>
<path fill-rule="evenodd" clip-rule="evenodd" fill="#291717" d="M1581.963,1560.08c-1.293,0.998-1.39,2.723-0.193,3.869
	c1.201,1.152,3.29,1.254,4.648,0.207c1.359-1.043,1.412-2.811,0.154-3.906C1585.31,1559.143,1583.265,1559.082,1581.963,1560.08z"/>
<path fill-rule="evenodd" clip-rule="evenodd" fill="#291717" d="M1568.664,1569.301c-1.412,0.881-1.729,2.584-0.678,3.832
	c1.047,1.25,3.113,1.539,4.596,0.615c1.478-0.918,1.76-2.664,0.643-3.873C1572.107,1568.67,1570.08,1568.424,1568.664,1569.301z"/>
<path fill-rule="evenodd" clip-rule="evenodd" fill="#291717" d="M1554.282,1577.293c-1.513,0.75-2.045,2.41-1.156,3.75
	c0.879,1.332,2.902,1.807,4.49,1.021c1.587-0.787,2.084-2.494,1.126-3.799C1557.787,1576.969,1555.8,1576.543,1554.282,1577.293z"/>
<path fill-rule="evenodd" clip-rule="evenodd" fill="#291717" d="M1538.978,1583.957c-1.605,0.605-2.34,2.219-1.628,3.623
	c0.709,1.408,2.657,2.055,4.342,1.42c1.675-0.641,2.383-2.299,1.596-3.676S1540.578,1583.346,1538.978,1583.957z"/>
<path fill-rule="evenodd" clip-rule="evenodd" fill="#291717" d="M1522.912,1589.215c-1.667,0.461-2.604,1.996-2.076,3.459
	c0.527,1.465,2.384,2.281,4.134,1.799c1.755-0.482,2.665-2.076,2.059-3.51C1526.417,1589.518,1524.583,1588.754,1522.912,1589.215z"
	/>
<path fill-rule="evenodd" clip-rule="evenodd" fill="#291717" d="M1506.274,1593.004c-1.716,0.311-2.842,1.746-2.503,3.25
	c0.339,1.498,2.08,2.484,3.884,2.158c1.803-0.324,2.911-1.816,2.489-3.307C1509.722,1593.621,1507.994,1592.691,1506.274,1593.004z"
	/>
<path fill-rule="evenodd" clip-rule="evenodd" fill="#291717" d="M1489.25,1595.279c-1.746,0.156-3.048,1.49-2.898,3.012
	c0.149,1.525,1.755,2.652,3.589,2.492c1.833-0.158,3.122-1.553,2.894-3.066C1492.601,1596.201,1491,1595.127,1489.25,1595.279z"/>
<path fill-rule="evenodd" clip-rule="evenodd" fill="#291717" d="M1472.031,1596.037c-1.759-0.004-3.219,1.215-3.259,2.738
	c-0.044,1.531,1.416,2.793,3.259,2.797c1.839-0.004,3.299-1.266,3.259-2.797C1475.246,1597.252,1473.791,1596.033,1472.031,1596.037
	z"/>
<path fill-rule="evenodd" clip-rule="evenodd" fill="#291717" d="M1454.809,1595.279c-1.75-0.152-3.347,0.922-3.579,2.438
	c-0.233,1.514,1.06,2.908,2.889,3.066c1.834,0.16,3.444-0.967,3.589-2.492C1457.856,1596.77,1456.56,1595.436,1454.809,1595.279z"/>
<path fill-rule="evenodd" clip-rule="evenodd" fill="#291717" d="M1437.784,1593.004c-1.72-0.312-3.447,0.617-3.87,2.102
	c-0.422,1.49,0.69,2.982,2.489,3.307c1.804,0.326,3.545-0.66,3.884-2.158C1440.63,1594.75,1439.504,1593.314,1437.784,1593.004z"/>
<path fill-rule="evenodd" clip-rule="evenodd" fill="#291717" d="M1421.146,1589.215c-1.671-0.461-3.505,0.303-4.116,1.748
	c-0.606,1.434,0.308,3.027,2.059,3.51c1.75,0.482,3.606-0.334,4.134-1.799C1423.751,1591.211,1422.818,1589.676,1421.146,1589.215z"
	/>
<path fill-rule="evenodd" clip-rule="evenodd" fill="#291717" d="M1405.083,1583.957c-1.601-0.611-3.522-0.01-4.31,1.367
	c-0.792,1.377-0.079,3.035,1.597,3.676c1.68,0.635,3.628-0.012,4.339-1.42C1407.421,1586.176,1406.687,1584.562,1405.083,1583.957z"
	/>
<path fill-rule="evenodd" clip-rule="evenodd" fill="#291717" d="M1389.774,1577.293c-1.513-0.75-3.501-0.324-4.46,0.973
	c-0.959,1.305-0.462,3.012,1.126,3.799c1.588,0.785,3.61,0.311,4.495-1.021C1391.819,1579.703,1391.291,1578.043,1389.774,1577.293z
	"/>
<path fill-rule="evenodd" clip-rule="evenodd" fill="#291717" d="M1375.393,1569.301c-1.412-0.877-3.443-0.631-4.557,0.574
	c-1.116,1.209-0.84,2.955,0.643,3.873c1.478,0.924,3.549,0.635,4.596-0.615C1377.121,1571.885,1376.805,1570.182,1375.393,1569.301z
	"/>
<path fill-rule="evenodd" clip-rule="evenodd" fill="#291717" d="M1357.488,1560.25c-1.258,1.096-1.205,2.863,0.154,3.906
	c1.354,1.047,3.448,0.945,4.648-0.207c1.196-1.146,1.096-2.871-0.197-3.869C1360.796,1559.082,1358.751,1559.143,1357.488,1560.25z"
	/>
<path fill-rule="evenodd" clip-rule="evenodd" fill="#291717" d="M1345.421,1549.492c-1.39,0.982-1.558,2.742-0.339,3.902
	c1.223,1.16,3.312,1.242,4.648,0.203c1.337-1.035,1.451-2.758,0.29-3.865C1348.855,1548.623,1346.814,1548.504,1345.421,1549.492z"
	/>
<path fill-rule="evenodd" clip-rule="evenodd" fill="#291717" d="M1334.769,1537.727c-1.509,0.855-1.891,2.59-0.827,3.852
	c1.069,1.262,3.141,1.529,4.601,0.615c1.456-0.91,1.79-2.615,0.77-3.818C1338.296,1537.168,1336.272,1536.871,1334.769,1537.727z"/>
<path fill-rule="evenodd" clip-rule="evenodd" fill="#291717" d="M1325.651,1525.08c-1.609,0.723-2.203,2.408-1.306,3.762
	c0.901,1.348,2.934,1.799,4.494,1.02c1.566-0.781,2.107-2.441,1.249-3.729C1329.228,1524.844,1327.257,1524.369,1325.651,1525.08z"
	/>
<path fill-rule="evenodd" clip-rule="evenodd" fill="#291717" d="M1318.184,1511.697c-1.688,0.572-2.498,2.195-1.771,3.621
	c0.721,1.424,2.691,2.049,4.336,1.416c1.662-0.637,2.405-2.24,1.715-3.598C1321.772,1511.777,1319.868,1511.131,1318.184,1511.697z"
	/>
<path fill-rule="evenodd" clip-rule="evenodd" fill="#291717" d="M1316.53,1499.533c-0.523-1.412-2.322-2.23-4.077-1.812
	c-1.746,0.414-2.762,1.957-2.217,3.439c0.541,1.48,2.406,2.281,4.135,1.795C1316.095,1502.475,1317.045,1500.945,1316.53,1499.533z"
	/>
<path fill-rule="evenodd" clip-rule="evenodd" fill="#291717" d="M1312.353,1485.477c-0.335-1.451-2.027-2.423-3.817-2.168
	c-1.799,0.255-2.995,1.699-2.648,3.219c0.353,1.522,2.111,2.485,3.884,2.16C1311.552,1488.361,1312.687,1486.928,1312.353,1485.477z
	"/>
<path fill-rule="evenodd" clip-rule="evenodd" fill="#291717" d="M1307.009,1474.086c1.803-0.167,3.118-1.491,2.969-2.962
	c-0.154-1.474-1.706-2.593-3.527-2.496c-1.812,0.095-3.193,1.425-3.034,2.967
	C1303.574,1473.139,1305.197,1474.251,1307.009,1474.086z"/>
<path fill-rule="evenodd" clip-rule="evenodd" fill="#291717" d="M1306.45,1450.016c1.821,0.097,3.373-1.022,3.527-2.496
	c0.149-1.473-1.166-2.795-2.969-2.962c-1.812-0.165-3.435,0.948-3.593,2.492C1303.257,1448.591,1304.639,1449.921,1306.45,1450.016z
	"/>
<path fill-rule="evenodd" clip-rule="evenodd" fill="#291717" d="M1308.535,1435.336c1.79,0.255,3.482-0.718,3.817-2.169
	c0.334-1.451-0.801-2.885-2.582-3.21c-1.772-0.326-3.531,0.638-3.884,2.159C1305.54,1433.636,1306.736,1435.08,1308.535,1435.336z"
	/>
<path fill-rule="evenodd" clip-rule="evenodd" fill="#291717" d="M1312.453,1420.923c1.755,0.418,3.554-0.399,4.077-1.812
	c0.515-1.412-0.436-2.942-2.159-3.422c-1.729-0.486-3.594,0.314-4.135,1.795C1309.691,1418.966,1310.707,1420.51,1312.453,1420.923z
	"/>
<path fill-rule="evenodd" clip-rule="evenodd" fill="#291717" d="M1320.748,1401.911c-1.645-0.634-3.615-0.009-4.336,1.416
	c-0.727,1.425,0.083,3.048,1.771,3.619c1.685,0.567,3.589-0.079,4.279-1.438S1322.41,1402.546,1320.748,1401.911z"/>
<path fill-rule="evenodd" clip-rule="evenodd" fill="#291717" d="M1328.84,1388.783c-1.561-0.779-3.593-0.33-4.494,1.02
	c-0.897,1.353-0.304,3.039,1.306,3.758c1.605,0.714,3.576,0.239,4.438-1.049C1330.947,1391.224,1330.406,1389.563,1328.84,1388.783z
	"/>
<path fill-rule="evenodd" clip-rule="evenodd" fill="#291717" d="M1333.941,1377.067c-1.063,1.262-0.682,2.995,0.827,3.85
	c1.504,0.855,3.527,0.559,4.543-0.648c1.021-1.203,0.687-2.907-0.77-3.817C1337.082,1375.536,1335.011,1375.805,1333.941,1377.067z"
	/>
<path fill-rule="evenodd" clip-rule="evenodd" fill="#291717" d="M1345.082,1365.25c-1.219,1.161-1.051,2.92,0.339,3.903
	c1.394,0.988,3.435,0.869,4.6-0.239c1.161-1.108,1.047-2.83-0.29-3.866C1348.394,1364.007,1346.305,1364.089,1345.082,1365.25z"/>
<path fill-rule="evenodd" clip-rule="evenodd" fill="#291717" d="M1357.643,1354.488c-1.359,1.044-1.412,2.809-0.154,3.907
	c1.263,1.105,3.308,1.167,4.605,0.17c1.293-1,1.394-2.722,0.197-3.872C1361.091,1353.543,1358.997,1353.44,1357.643,1354.488z"/>
<path fill-rule="evenodd" clip-rule="evenodd" fill="#291717" d="M1371.479,1344.895c-1.482,0.921-1.759,2.665-0.643,3.875
	c1.113,1.208,3.145,1.453,4.557,0.573c1.412-0.879,1.729-2.58,0.682-3.832C1375.027,1344.264,1372.956,1343.971,1371.479,1344.895z"
	/>
<path fill-rule="evenodd" clip-rule="evenodd" fill="#291717" d="M1386.44,1336.579c-1.588,0.786-2.085,2.496-1.126,3.799
	c0.959,1.297,2.947,1.723,4.46,0.974c1.517-0.751,2.045-2.413,1.161-3.75C1390.051,1336.269,1388.028,1335.794,1386.44,1336.579z"/>
<path fill-rule="evenodd" clip-rule="evenodd" fill="#291717" d="M1402.37,1329.645c-1.676,0.64-2.389,2.298-1.597,3.677
	c0.787,1.376,2.709,1.977,4.31,1.366c1.604-0.607,2.338-2.219,1.626-3.623C1405.998,1329.656,1404.05,1329.009,1402.37,1329.645z"/>
<path fill-rule="evenodd" clip-rule="evenodd" fill="#291717" d="M1419.089,1324.173c-1.751,0.48-2.665,2.074-2.059,3.51
	c0.611,1.444,2.445,2.206,4.116,1.747c1.672-0.463,2.604-1.997,2.076-3.458C1422.695,1324.508,1420.839,1323.691,1419.089,1324.173z
	"/>
<path fill-rule="evenodd" clip-rule="evenodd" fill="#291717" d="M1436.403,1320.233c-1.799,0.323-2.911,1.816-2.489,3.305
	c0.423,1.485,2.15,2.416,3.87,2.104c1.72-0.312,2.846-1.749,2.503-3.252C1439.948,1320.891,1438.207,1319.905,1436.403,1320.233z"/>
<path fill-rule="evenodd" clip-rule="evenodd" fill="#291717" d="M1454.118,1317.861c-1.829,0.159-3.122,1.553-2.889,3.064
	c0.232,1.52,1.829,2.591,3.579,2.439c1.751-0.155,3.048-1.492,2.898-3.013C1457.562,1318.828,1455.952,1317.701,1454.118,1317.861z"
	/>
<path fill-rule="evenodd" clip-rule="evenodd" fill="#291717" d="M1472.031,1317.072c-1.843,0.003-3.303,1.267-3.259,2.796
	c0.04,1.526,1.5,2.742,3.259,2.738c1.76,0.004,3.215-1.211,3.259-2.738C1475.33,1318.338,1473.87,1317.075,1472.031,1317.072z"/>
<path fill-rule="evenodd" clip-rule="evenodd" fill="#291717" d="M1489.94,1317.861c-1.834-0.161-3.439,0.966-3.589,2.491
	c-0.149,1.521,1.152,2.858,2.898,3.013c1.75,0.152,3.351-0.92,3.584-2.439C1493.062,1319.414,1491.773,1318.021,1489.94,1317.861z"
	/>
<path fill-rule="evenodd" clip-rule="evenodd" fill="#291717" d="M1507.655,1320.233c-1.804-0.328-3.545,0.658-3.884,2.157
	c-0.339,1.504,0.787,2.94,2.503,3.252c1.72,0.311,3.447-0.619,3.87-2.104C1510.566,1322.049,1509.458,1320.556,1507.655,1320.233z"
	/>
<path fill-rule="evenodd" clip-rule="evenodd" fill="#291717" d="M1524.97,1324.173c-1.75-0.482-3.606,0.334-4.134,1.799
	c-0.528,1.461,0.409,2.995,2.076,3.458c1.671,0.458,3.505-0.303,4.116-1.747C1527.635,1326.247,1526.725,1324.654,1524.97,1324.173z
	"/>
<path fill-rule="evenodd" clip-rule="evenodd" fill="#291717" d="M1541.691,1329.645c-1.685-0.636-3.633,0.011-4.342,1.419
	c-0.712,1.404,0.022,3.016,1.628,3.623c1.601,0.611,3.522,0.011,4.31-1.366C1544.074,1331.942,1543.366,1330.285,1541.691,1329.645z
	"/>
<path fill-rule="evenodd" clip-rule="evenodd" fill="#291717" d="M1557.616,1336.579c-1.588-0.785-3.611-0.31-4.49,1.022
	c-0.889,1.338-0.356,3,1.156,3.75c1.518,0.749,3.505,0.323,4.46-0.974C1559.7,1339.075,1559.203,1337.365,1557.616,1336.579z"/>
<path fill-rule="evenodd" clip-rule="evenodd" fill="#291717" d="M1572.582,1344.895c-1.482-0.924-3.549-0.631-4.596,0.616
	c-1.051,1.251-0.734,2.952,0.678,3.832c1.416,0.88,3.443,0.635,4.561-0.573C1574.342,1347.56,1574.06,1345.816,1572.582,1344.895z"
	/>
<path fill-rule="evenodd" clip-rule="evenodd" fill="#291717" d="M1581.77,1354.693c-1.196,1.15-1.1,2.872,0.193,3.872
	c1.302,0.996,3.347,0.935,4.609-0.17c1.258-1.098,1.205-2.863-0.154-3.907C1585.06,1353.44,1582.971,1353.543,1581.77,1354.693z"/>
<path fill-rule="evenodd" clip-rule="evenodd" fill="#291717" d="M1594.326,1365.047c-1.333,1.036-1.451,2.758-0.286,3.866
	s3.206,1.227,4.601,0.239c1.385-0.982,1.557-2.742,0.334-3.903C1597.756,1364.089,1595.663,1364.007,1594.326,1365.047z"/>
<path fill-rule="evenodd" clip-rule="evenodd" fill="#291717" d="M1605.519,1376.451c-1.456,0.91-1.79,2.614-0.77,3.817
	c1.016,1.207,3.034,1.504,4.543,0.648c1.504-0.855,1.892-2.588,0.827-3.85C1609.05,1375.805,1606.979,1375.536,1605.519,1376.451z"
	/>
<path fill-rule="evenodd" clip-rule="evenodd" fill="#291717" d="M1615.216,1388.783c-1.565,0.78-2.106,2.44-1.244,3.729
	c0.857,1.288,2.832,1.763,4.433,1.049c1.61-0.719,2.208-2.406,1.307-3.758C1618.81,1388.453,1616.782,1388.004,1615.216,1388.783z"
	/>
<path fill-rule="evenodd" clip-rule="evenodd" fill="#291717" d="M1625.872,1406.946c1.693-0.571,2.498-2.194,1.772-3.619
	c-0.721-1.425-2.687-2.05-4.336-1.416c-1.658,0.635-2.401,2.238-1.715,3.597C1622.288,1406.867,1624.188,1407.514,1625.872,1406.946
	z"/>
<path fill-rule="evenodd" clip-rule="evenodd" fill="#291717" d="M1627.53,1419.111c0.52,1.412,2.318,2.229,4.073,1.812
	c1.745-0.413,2.766-1.957,2.221-3.438c-0.541-1.48-2.41-2.281-4.135-1.795C1627.966,1416.169,1627.012,1417.699,1627.53,1419.111z"
	/>
<path fill-rule="evenodd" clip-rule="evenodd" fill="#291717" d="M1631.709,1433.167c0.329,1.451,2.027,2.424,3.817,2.169
	c1.794-0.256,2.995-1.7,2.643-3.22c-0.347-1.521-2.106-2.485-3.883-2.159C1632.509,1430.282,1631.374,1431.716,1631.709,1433.167z"
	/>
<path fill-rule="evenodd" clip-rule="evenodd" fill="#291717" d="M1637.052,1444.558c-1.808,0.167-3.122,1.489-2.973,2.962
	c0.154,1.474,1.711,2.593,3.527,2.496c1.812-0.095,3.192-1.425,3.034-2.966C1640.482,1445.506,1638.864,1444.393,1637.052,1444.558z
	"/>
<path fill-rule="evenodd" clip-rule="evenodd" fill="none" stroke="#F0E9D3" stroke-width="11.2588" stroke-miterlimit="10" d="
	M1710.157,1511.482c-158.668,0-317.335,0-476.006,0c-8.35-33.396-22.029-66.586-33.306-99.881
	c180.594-14.212,362.025-14.212,542.619,0C1732.189,1444.896,1718.509,1478.088,1710.157,1511.482z"/>
<path fill-rule="evenodd" clip-rule="evenodd" fill="#731116" d="M1710.157,1511.482c-158.668,0-317.335,0-476.006,0
	c-8.35-33.396-22.029-66.586-33.306-99.881c180.594-14.212,362.025-14.212,542.619,0
	C1732.189,1444.896,1718.509,1478.088,1710.157,1511.482z"/>
<path fill-rule="evenodd" clip-rule="evenodd" fill="none" stroke="#F0E9D3" stroke-width="2.2518" stroke-miterlimit="10" d="
	M1239.386,1504.727c-5.753-21.651-13.599-43.347-21.201-64.38c-2.691-7.447-5.451-15.078-8.107-22.685
	c86.882-6.612,175.013-9.963,262.08-9.963c87.07,0,175.188,3.351,262.077,9.963c-2.659,7.61-5.421,15.25-8.114,22.705
	c-7.603,21.026-15.441,42.717-21.196,64.359H1239.386z"/>
<g>
	<g>
		<path fill="#291717" d="M1362.709,1525.529c0.422-0.418,0.374-0.783-0.248-1.412c-0.455-0.461-0.535-0.715-0.2-1.047l0.598-0.592
			c0.299-0.295,0.546-0.291,0.983,0.148l6.038,6.088c1.95,1.969,3.085,4.867,0.886,7.045c-1.195,1.188-3.171,1.023-4.322,0.424
			l-0.035,0.035c0.699,1.34,1.78,3.586-0.365,5.713c-2.551,2.527-5.727,0.941-8.321-1.674l-5.79-5.838
			c-0.438-0.439-0.438-0.688-0.139-0.982l0.599-0.594c0.334-0.33,0.589-0.252,1.044,0.211c0.623,0.629,0.987,0.68,1.41,0.262
			L1362.709,1525.529z M1356.662,1536.164l2.322,2.344c1.578,1.592,3.87,1.936,4.872,0.941c1.249-1.236,0.801-3.236-1.026-5.08
			l-2.157-2.176L1356.662,1536.164z M1362.115,1530.766l2.054,2.07c1.516,1.529,3.092,1.748,4.183,0.668
			c0.933-0.924,0.598-2.705-0.607-3.92l-2.198-2.217L1362.115,1530.766z"/>
		<path fill="#291717" d="M1375.686,1537.809c0.376-0.461,0.288-0.82-0.398-1.377c-0.506-0.408-0.609-0.654-0.312-1.02l0.532-0.656
			c0.265-0.324,0.511-0.35,0.992,0.041l4.532,3.68c0.479,0.393,0.508,0.639,0.241,0.963l-0.532,0.656
			c-0.297,0.365-0.559,0.312-1.06-0.098c-0.688-0.555-1.058-0.568-1.434-0.107l-6.988,8.602c-0.374,0.461-0.286,0.822,0.4,1.377
			c0.503,0.41,0.608,0.654,0.312,1.021l-0.531,0.652c-0.265,0.328-0.513,0.352-0.994-0.039l-4.53-3.682
			c-0.479-0.389-0.508-0.635-0.242-0.963l0.532-0.654c0.295-0.365,0.559-0.312,1.061,0.096c0.686,0.559,1.055,0.572,1.432,0.109
			L1375.686,1537.809z"/>
		<path fill="#291717" d="M1390.333,1549.305c-0.638-0.422-0.713-2.551-2.775-3.92c-1.031-0.684-2.771-1.154-3.773,0.354
			c-1.823,2.746,7.505,7.562,4.462,12.146c-1.7,2.561-5.951,2.301-9.34,0.053c-1.917-1.27-4.986-3.842-4.584-5.299
			c0.25-0.963,0.457-1.809,0.608-2.037c0.176-0.268,0.629-0.146,1.12,0.182l0.934,0.617c0.908,0.604,0.691,3.164,3.123,4.779
			c1.402,0.928,3.932,1.326,4.877-0.1c2.059-3.098-7.256-7.932-4.336-12.332c1.645-2.479,5.632-1.768,8.063-0.156
			c2.261,1.5,4.651,3.707,4.341,5.08c-0.191,0.822-0.346,1.316-0.455,1.482c-0.123,0.186-0.448,0.355-0.889,0.062L1390.333,1549.305
			z"/>
		<path fill="#291717" d="M1404.851,1552.867c2.764,1.393,4.409,2.582,4.185,3.549c-0.176,0.744-0.311,1.535-0.521,1.957
			c-0.145,0.287-0.453,0.242-1.269-0.166c-2.605-1.316-1.511-2.51-3.879-3.703c-3.684-1.857-6.632,0.791-7.98,3.467
			c-1.124,2.236-1.407,6.475,2.355,8.371c3.263,1.646,3.345-0.422,5.952,0.891c0.761,0.385,0.896,0.645,0.706,1.023
			c-0.213,0.42-0.815,0.836-1.603,1.412c-0.664,0.469-2.802,0.195-6.408-1.623c-4.475-2.254-6.777-6.855-4.318-11.742
			C1393.952,1552.562,1398.981,1549.908,1404.851,1552.867z"/>
		<path fill="#291717" d="M1412.301,1559.816c0.188-0.539-0.007-0.871-0.757-1.135c-0.974-0.34-1.174-0.568-1.019-1.012l0.304-0.867
			c0.132-0.373,0.358-0.396,0.86-0.221l6.058,2.125c0.611,0.217,0.82,0.42,0.706,0.748l-0.271,0.77
			c-0.198,0.562-0.523,0.605-1.302,0.33c-0.919-0.32-1.262-0.23-1.467,0.352l-2.612,7.432c-0.805,2.289,0.218,4.537,2.718,5.416
			c2.837,0.996,4.576-0.049,5.456-2.547l2.61-7.43c0.197-0.562-0.062-0.889-0.897-1.182c-0.611-0.215-0.792-0.408-0.636-0.854
			l0.279-0.795c0.139-0.396,0.363-0.502,0.948-0.295l5.504,1.93c0.583,0.207,0.692,0.428,0.552,0.824l-0.279,0.795
			c-0.156,0.443-0.418,0.484-1.031,0.268c-0.833-0.293-1.295-0.219-1.493,0.344l-2.874,8.176c-1.174,3.342-4.675,4.24-8.844,2.775
			c-3.559-1.25-6.686-4.08-5.388-7.771L1412.301,1559.816z"/>
		<path fill="#291717" d="M1432.296,1566.207c0.141-0.578-0.093-0.865-0.95-1.074c-0.629-0.154-0.829-0.33-0.717-0.787l0.198-0.818
			c0.101-0.408,0.314-0.533,0.915-0.387l5.666,1.381c0.601,0.146,0.732,0.357,0.631,0.766l-0.199,0.818
			c-0.11,0.457-0.37,0.52-0.999,0.367c-0.859-0.209-1.198-0.064-1.339,0.514l-2.626,10.752c-0.141,0.576,0.093,0.861,0.95,1.072
			c0.631,0.154,0.829,0.33,0.719,0.787l-0.199,0.818c-0.102,0.408-0.314,0.535-0.915,0.387l-5.667-1.381
			c-0.601-0.145-0.732-0.355-0.631-0.766l0.2-0.816c0.109-0.459,0.369-0.521,0.998-0.367c0.86,0.207,1.198,0.062,1.339-0.516
			L1432.296,1566.207z"/>
		<path fill="#291717" d="M1440.688,1582.287c-0.555-0.088-0.702-0.287-0.646-0.631l0.156-0.977
			c0.053-0.318,0.316-0.477,1.275-0.324c1.137,0.182,1.365-0.133,1.479-0.844l1.781-11.131l-1.106-0.176
			c-3.025-0.482-2.124,0.592-4.188,0.262c-1.078-0.172-1.146-0.309-1.103-0.578c0.066-0.416,0.799-1.453,1.654-2.871
			c0.125-0.232,0.378-0.318,1.251-0.18c1.396,0.225,0.977,0.986,2.549,1.236l6.693,1.066c2.443,0.389,1.349-0.586,3.356-0.268
			c0.989,0.156,1.156,0.41,1.105,0.727c-0.026,0.172-0.636,1.18-1.53,2.666c-0.242,0.389-0.511,0.396-1.442,0.248
			c-1.951-0.311-0.022-0.982-2.991-1.455l-0.989-0.156l-1.781,11.131c-0.114,0.709,0.007,1.078,1.142,1.258
			c0.958,0.154,1.161,0.387,1.11,0.707l-0.156,0.979c-0.055,0.342-0.257,0.482-0.812,0.395L1440.688,1582.287z"/>
		<path fill="#291717" d="M1473.305,1568.014c3.096,0.045,5.098,0.395,5.319,1.363c0.167,0.746,0.392,1.518,0.385,1.988
			c-0.004,0.32-0.301,0.418-1.214,0.404c-2.92-0.041-2.456-1.596-5.108-1.633c-4.127-0.059-5.622,3.611-5.664,6.611
			c-0.035,2.5,1.562,6.439,5.776,6.496c3.657,0.053,2.828-1.844,5.746-1.803c0.855,0.012,1.089,0.189,1.082,0.611
			c-0.007,0.471-0.369,1.107-0.822,1.971c-0.394,0.711-2.439,1.402-6.477,1.346c-5.012-0.07-9.097-3.197-9.02-8.674
			C1463.365,1572.508,1466.732,1567.922,1473.305,1568.014z"/>
		<path fill="#291717" d="M1489.981,1567.006c6.001-0.66,10.052,2.758,10.582,7.561c0.53,4.805-2.677,9.047-8.678,9.711
			c-6.001,0.662-10.056-2.781-10.583-7.586C1480.772,1571.889,1483.98,1567.67,1489.981,1567.006z M1491.65,1582.158
			c3.924-0.432,5.59-3.857,5.226-7.182c-0.367-3.328-2.738-6.283-6.661-5.85c-3.921,0.43-5.592,3.832-5.225,7.16
			C1485.357,1579.611,1487.73,1582.592,1491.65,1582.158z"/>
		<path fill="#291717" d="M1503.554,1568.625c-0.191-0.742-0.631-0.912-1.2-0.766c-1.001,0.256-1.312,0.105-1.437-0.373
			l-0.178-0.695c-0.116-0.457,0.053-0.629,0.653-0.783l5.367-1.373c0.741-0.191,1.071-0.096,1.472,0.516l6.63,10.314l0.057-0.014
			l0.479-12.139c0.011-0.666,0.356-0.984,0.812-1.102l5.539-1.418c0.543-0.141,0.825-0.111,0.924,0.271l0.227,0.889
			c0.119,0.455-0.075,0.658-0.987,0.893c-0.743,0.189-0.935,0.393-0.768,1.041l2.786,10.865c0.11,0.43,0.451,0.572,1.28,0.359
			c0.854-0.219,1.161-0.092,1.279,0.361l0.189,0.746c0.099,0.385-0.108,0.639-0.88,0.838l-5.311,1.363
			c-0.629,0.158-0.831,0.084-0.947-0.373l-0.203-0.791c-0.109-0.434,0.018-0.645,0.816-0.848c0.914-0.236,1.031-0.496,0.919-0.926
			l-2.981-11.633l-0.058,0.018l-0.849,14.605c-0.042,0.547-0.095,0.818-0.552,0.932l-1.685,0.434
			c-0.229,0.059-0.402-0.023-0.715-0.533l-7.984-12.268l-0.058,0.016l2.947,11.49c0.116,0.453,0.45,0.572,1.223,0.373
			c0.741-0.189,1.042-0.088,1.135,0.273l0.208,0.816c0.117,0.455-0.039,0.674-0.696,0.842l-5.568,1.43
			c-0.515,0.129-0.756,0.012-0.855-0.371l-0.188-0.742c-0.13-0.506,0.055-0.73,0.97-0.965c0.77-0.199,1.053-0.398,0.917-0.926
			L1503.554,1568.625z"/>
		<path fill="#291717" d="M1526.621,1561.834c-0.222-0.551-0.578-0.648-1.398-0.32c-0.601,0.242-0.866,0.215-1.04-0.223
			l-0.314-0.779c-0.156-0.393-0.058-0.619,0.519-0.85l6.811-2.729c3.391-1.359,6.688-1.293,7.912,1.766
			c1.223,3.057-0.877,5.34-4.815,6.918l-2.243,0.896l1.658,4.139c0.266,0.666,0.561,0.924,1.543,0.527
			c0.904-0.359,1.196-0.266,1.315,0.033l0.369,0.92c0.128,0.322,0.028,0.547-0.49,0.758l-5.825,2.334
			c-0.576,0.23-0.805,0.135-0.961-0.258l-0.312-0.777c-0.176-0.441-0.002-0.643,0.601-0.883c0.82-0.328,1.01-0.645,0.79-1.199
			L1526.621,1561.834z M1531.259,1564.537l2.023-0.811c2.298-0.92,3.51-1.939,2.81-3.686c-0.875-2.184-2.981-1.58-5.033-0.758
			l-1.641,0.656L1531.259,1564.537z"/>
		<path fill="#291717" d="M1547.14,1561.777c0.135,1.057,0.253,2.705,0.478,3.119c0.2,0.369,0.655,0.658,1.46,0.223
			c0.546-0.291,0.772-0.246,0.959,0.104l0.411,0.764c0.176,0.326-0.114,0.594-0.736,0.93l-4.772,2.574
			c-0.701,0.377-0.98,0.414-1.193,0.023l-0.446-0.826c-0.163-0.307,0.391-0.83,0.934-1.125c0.39-0.209,0.537-0.99,0.471-1.488
			l-1.176-9.939c-0.11-1.01-0.205-1.746-0.288-1.898c-0.128-0.238-0.546-0.268-1.168,0.068c-0.596,0.322-0.889,0.34-1.159-0.162
			l-0.364-0.676c-0.212-0.393-0.038-0.625,0.714-1.031l7.889-4.252c0.622-0.334,0.888-0.338,1.099,0.053l0.295,0.545
			c0.306,0.568,0.244,0.824-0.587,1.271c-0.545,0.295-0.732,0.564-0.581,0.848c0.152,0.283,0.618,0.652,1.438,1.361l7.378,6.541
			c0.636,0.557,1.165,0.609,1.761,0.287c0.599-0.322,1.019-0.352,1.265,0.105l0.376,0.697c0.2,0.371-0.002,0.619-0.494,0.887
			l-5.317,2.865c-0.363,0.195-0.645,0.234-0.82-0.092l-0.446-0.83c-0.165-0.303-0.016-0.523,0.606-0.859
			c0.726-0.391,0.796-0.822,0.572-1.238c-0.247-0.457-1.271-1.113-2.536-2.092L1547.14,1561.777z M1546.142,1552.168l-0.053,0.027
			l0.69,7.361l4.928-2.656L1546.142,1552.168z"/>
		<path fill="#291717" d="M1564.279,1558.73c-0.497,0.369-0.741,0.338-0.994,0l-0.502-0.678c-0.281-0.377-0.164-0.615,0.354-1.004
			c0.71-0.527,0.954-0.988,0.601-1.463l-6.589-8.857c-0.385-0.518-0.787-0.465-1.52,0.08c-0.615,0.457-0.868,0.461-1.105,0.143
			l-0.604-0.812c-0.223-0.299-0.117-0.502,0.475-0.941l4.304-3.201c0.567-0.422,0.815-0.238,1.323,0.004l12.502,5.598l0.048-0.035
			l-5.911-7.943c-0.354-0.479-0.866-0.375-1.574,0.152c-0.521,0.389-0.783,0.43-1.064,0.051l-0.501-0.674
			c-0.253-0.338-0.214-0.584,0.283-0.953l4.68-3.482c0.497-0.369,0.741-0.334,0.994,0.002l0.501,0.676
			c0.281,0.377,0.165,0.617-0.354,1.004c-0.711,0.527-0.955,0.988-0.601,1.465l7.919,10.645c0.297,0.396,0.125,0.709-0.254,0.99
			l-2.363,1.76c-0.237,0.176-0.444,0.145-0.748,0.033l-13.943-6.254l-0.049,0.035l6.516,8.758c0.354,0.475,0.867,0.373,1.574-0.154
			c0.521-0.387,0.783-0.428,1.064-0.053l0.504,0.678c0.251,0.338,0.211,0.58-0.286,0.949L1564.279,1558.73z"/>
		<path fill="#291717" d="M1575.63,1529.652c0.316,0.314,0.253,0.623-0.224,1.105c-0.479,0.48-0.521,0.77-0.258,1.029
			c0.211,0.211,0.515,0.221,0.924,0.334l5.829,1.545l0.042-0.045l-1.639-5.766c-0.103-0.352-0.217-0.588-0.429-0.801
			c-0.229-0.223-0.736-0.064-1.068,0.271c-0.455,0.459-0.857,0.477-1.104,0.232l-0.546-0.539c-0.334-0.332-0.271-0.641,0.104-1.018
			l4.151-4.184c0.455-0.463,0.724-0.486,0.952-0.26l0.739,0.732c0.264,0.262,0.165,0.535-0.209,0.912
			c-0.436,0.439-0.557,1.23-0.396,1.807l2.744,10.348c0.16,0.574,0.299,1.209,0.703,1.611c0.458,0.453,1.14,0.049,1.781-0.604
			c0.539-0.543,0.812-0.605,1.164-0.258l0.527,0.523c0.369,0.367,0.251,0.664-0.207,1.123l-3.507,3.535
			c-0.436,0.439-0.708,0.504-1.061,0.154l-0.598-0.592c-0.511-0.506-0.546-0.998-0.736-1.684l-0.673-2.449l-0.035-0.035
			l-9.635-1.992c-0.805-0.174-1.363-0.107-1.84,0.377c-0.478,0.48-0.884,0.576-1.166,0.295l-0.615-0.607
			c-0.299-0.299-0.242-0.531,0.193-0.971l4.483-4.52c0.456-0.459,0.708-0.502,0.99-0.223L1575.63,1529.652z"/>
	</g>
</g>
<g>
	<g>
		<path fill="#291717" d="M1375.863,1380.966h3.011c1.396,0,0.506-0.715,2.168-0.715c0.697,0,0.842,0.099,1.036,0.64
			c0.457,1.331,0.817,2.263,0.817,2.659c0,0.247-0.167,0.319-1.253,0.319c-1.612,0-0.915-0.787-2.721-0.787h-3.059v5.511h3.492
			c3.54,0,2.217-1.452,4.118-1.452c1.061,0,1.229,0.147,1.229,0.517c0,0.319-0.457,1.229-0.915,2.361
			c-0.218,0.541-0.483,0.688-1.952,0.688h-9.803c-0.506,0-0.651-0.174-0.651-0.591v-0.836c0-0.466,0.193-0.589,0.724-0.589
			c0.82,0,1.06-0.222,1.06-0.813v-10.995c0-0.591-0.239-0.813-1.06-0.813c-0.53,0-0.724-0.123-0.724-0.589v-0.835
			c0-0.418,0.146-0.592,0.651-0.592h10.189c0.312,0,0.527,0.099,0.651,0.442c0.312,1.009,0.673,2.067,0.673,2.313
			c0,0.321-0.291,0.664-0.987,0.664c-1.929,0-1.252-1.304-3.807-1.304h-2.89V1380.966z"/>
		<path fill="#291717" d="M1395.553,1377.595c-0.629,0-1.641-1.722-3.663-1.722c-1.012,0-2.408,0.565-2.408,2.362
			c0,3.272,8.525,2.14,8.525,7.602c0,3.05-3.008,5.166-6.333,5.166c-1.878,0-5.13-0.442-5.515-1.869
			c-0.267-0.935-0.506-1.749-0.506-2.017c0-0.321,0.36-0.468,0.842-0.468h0.915c0.891,0,1.902,2.238,4.288,2.238
			c1.372,0,3.274-1.058,3.274-2.755c0-3.69-8.525-2.582-8.525-7.824c0-2.951,3.034-4.55,5.42-4.55c2.215,0,4.84,0.517,5.249,1.818
			c0.242,0.788,0.363,1.28,0.363,1.478c0,0.22-0.146,0.541-0.581,0.541H1395.553z"/>
		<path fill="#291717" d="M1402.567,1390.707c-0.457,0-0.6-0.174-0.6-0.517v-0.985c0-0.319,0.191-0.515,0.987-0.515
			c0.938,0,1.084-0.345,1.084-1.06v-11.193h-0.917c-2.503,0-1.636,0.91-3.347,0.91c-0.891,0-0.964-0.123-0.964-0.394
			c0-0.418,0.458-1.55,0.964-3.074c0.072-0.246,0.264-0.37,0.987-0.37c1.156,0,0.917,0.812,2.216,0.812h5.54
			c2.022,0,1.011-0.787,2.674-0.787c0.817,0,0.987,0.222,0.987,0.541c0,0.171-0.36,1.256-0.891,2.854
			c-0.146,0.417-0.363,0.466-1.133,0.466c-1.613,0-0.145-0.958-2.602-0.958h-0.817v11.193c0,0.714,0.145,1.06,1.082,1.06
			c0.796,0,0.989,0.196,0.989,0.515v0.985c0,0.343-0.146,0.517-0.603,0.517H1402.567z"/>
		<path fill="#291717" d="M1413.343,1387.754c0.868,0,1.542,0.616,1.542,1.574c0,0.961-0.674,1.575-1.542,1.575
			c-0.866,0-1.542-0.614-1.542-1.575C1411.801,1388.37,1412.477,1387.754,1413.343,1387.754z"/>
		<path fill="#291717" d="M1524.527,1388.616c0-0.444,0.265-0.616,0.555-0.935l6.333-6.52c0.748-0.787,1.565-1.476,1.565-2.533
			c0-1.478-1.444-2.656-2.816-2.656c-2.266,0-2.145,1.671-3.974,1.671h-0.917c-0.288,0-0.481-0.196-0.481-0.343
			c0-0.171,0.048-0.321,0.097-0.468l0.554-1.452c0.458-1.229,2.602-1.523,4.337-1.523c2.335,0,5.875,1.106,5.875,4.748
			c0,2.509-1.662,3.69-3.443,5.486l-4.433,4.501h3.758c2.337,0,1.735-1.427,3.107-1.427h0.891c0.29,0,0.603,0.22,0.603,0.466
			c0,0.198-0.049,0.396-0.191,0.765l-0.748,1.794c-0.121,0.321-0.288,0.517-0.987,0.517h-9.056c-0.387,0-0.627-0.196-0.627-0.591
			V1388.616z"/>
		<path fill="#291717" d="M1543.998,1373.856c4.336,0,5.878,4.919,5.878,8.51c0,3.593-1.542,8.537-5.878,8.537
			c-4.337,0-5.878-4.943-5.878-8.537C1538.12,1378.775,1539.661,1373.856,1543.998,1373.856z M1543.998,1388.787
			c2.48,0,3.203-4.354,3.203-6.421c0-2.067-0.723-6.395-3.203-6.395s-3.204,4.328-3.204,6.395
			C1540.794,1384.434,1541.518,1388.787,1543.998,1388.787z"/>
		<path fill="#291717" d="M1554.651,1390.707c-0.457,0-0.624-0.147-0.624-0.541v-0.886c0-0.466,0.215-0.589,0.987-0.589
			c1.106,0,1.396-0.272,1.396-1.156v-9.546c0-0.345-0.193-0.614-0.458-0.614c-0.529,0-1.325,0.418-1.613,0.418
			c-0.193,0-0.337-0.149-0.337-0.468v-1.157c0-0.295,0.119-0.394,0.409-0.541l3.25-1.599c0.266-0.123,0.506-0.171,0.796-0.171
			c0.36,0,0.627,0.417,0.627,1.106v12.523c0,0.933,0.312,1.205,1.565,1.205c0.648,0,0.843,0.147,0.843,0.541v0.935
			c0,0.367-0.218,0.541-0.603,0.541H1554.651z"/>
		<path fill="#291717" d="M1564.729,1388.616c0-0.444,0.264-0.616,0.555-0.935l6.333-6.52c0.747-0.787,1.565-1.476,1.565-2.533
			c0-1.478-1.444-2.656-2.817-2.656c-2.265,0-2.144,1.671-3.973,1.671h-0.918c-0.287,0-0.481-0.196-0.481-0.343
			c0-0.171,0.049-0.321,0.097-0.468l0.555-1.452c0.457-1.229,2.602-1.523,4.336-1.523c2.336,0,5.876,1.106,5.876,4.748
			c0,2.509-1.662,3.69-3.443,5.486l-4.434,4.501h3.759c2.337,0,1.734-1.427,3.106-1.427h0.891c0.29,0,0.603,0.22,0.603,0.466
			c0,0.198-0.048,0.396-0.191,0.765l-0.747,1.794c-0.121,0.321-0.288,0.517-0.987,0.517h-9.056c-0.387,0-0.627-0.196-0.627-0.591
			V1388.616z"/>
	</g>
</g>
<path fill="#3B2221" d="M1442.963,1352.277c1.79,1.373,3.143,4.095,5.539,4.282c2.725,0.209,2.883-3.136,2.289-5.128
	c-0.633-2.122-1.901-4.141-3.027-6.161c-0.574-1.023-1.216-2.035-1.751-3.084c1.298,0.472,2.998,0.213,4.014-0.343
	c3.87-2.116,3.608-6.322,4.123-10.095c0.33,2.237,2.155,4.128,5.618,5.02c3.039,0.782,6.441-0.839,7.062-1.543
	c-1.252,3.308-3.143,9.418,1.409,11.165c1.071,0.409,2.261,0.224,3.276-0.253c2.166-1.016,4.07-3.334,5.229-5.366
	c0.45-0.791,0.803-1.627,1.077-2.5c0.151-0.496,0.901-2.356,0.664-2.81c1.46,2.799,1.845,5.339,5.79,5.296
	c3.547-0.037,5.933-2.752,12.272-2.333c0,0-8.824,5.049-6.788,9.918c1.07,2.558,4.197,3.657,6.463,4.86
	c-4.014,0.014-7.938,0.292-11.169,2.098c-2.029,1.135-4.578,4.823-1.493,7.161c1.563,1.184,3.677,1.456,5.428,1.611
	c1.77,0.154,3.474-0.453,5.288,0.015c-1.079,0.741-1.39,1.735-1.306,3.05c0.065,1.091,1.139,2.216,2.019,3.035
	c1.488,1.372,3.219,2.595,5.042,3.399c-3.54-0.303-8.732-0.072-9.198,3.901c-0.121,1.056-0.028,2.489,0.655,3.534
	c-1.061-0.442-2.104-0.972-3.149-1.425c-2.01-0.873-4.206-1.792-6.291-1.688c-1.341,0.068-2.87,0.609-3.246,1.911
	c-0.721,2.514,4.539,3.908,4.81,4.591c0.185,0.479-2.904,1.834-3.881,2.283c-2.094,0.952-4.658,1.161-7.151,0.677
	c-3.459-0.668-6.729-2.293-9.671-4.539c-1.607-1.223-3.16-2.505-4.405-4.042c-0.109,0.215-0.218,0.433-0.327,0.646
	c-0.792,1.537-1.687,3.047-2.8,4.49c-1.314,1.675-3.027,3.184-5.066,4.147c-2.027,0.979-3.876,1.315-6.027,1.376l-1.966-3.404
	c4.75,0.547,8.574-1.056,10.969-3.87c1.139-1.293,2.111-2.766,3.011-4.328c0.183-0.316,0.362-0.642,0.541-0.963
	c0.819-1.504,1.603-3.061,2.414-4.602c3.241-6.155,6.837-12.202,11.731-17.208c1.108-1.131,2.521-2.422,3.935-3.149
	c-1.333,0.559-2.763,1.582-3.97,2.474c-3.396,2.514-6.186,5.781-8.603,9.226c-1.783,2.538-3.208,5.297-4.78,7.96
	c-0.924,1.539-1.808,3.101-2.74,4.596c0.029,0.035,0.062,0.075,0.086,0.11c-0.039-0.016-0.081-0.033-0.125-0.049
	c-1.716-0.646-3.336-1.623-4.926-2.658c-3.145-2.056-5.774-4.704-7.406-7.976c-1.319-2.645-1.574-5.439-1.137-8.029
	C1441.624,1355.744,1441.937,1353.775,1442.963,1352.277z"/>
<g>
	<g>
		<path fill="#291717" d="M1362.709,1525.529c0.422-0.418,0.374-0.783-0.248-1.412c-0.455-0.461-0.535-0.715-0.2-1.047l0.598-0.592
			c0.299-0.295,0.546-0.291,0.983,0.148l6.038,6.088c1.95,1.969,3.085,4.867,0.886,7.045c-1.195,1.188-3.171,1.023-4.322,0.424
			l-0.035,0.035c0.699,1.34,1.78,3.586-0.365,5.713c-2.551,2.527-5.727,0.941-8.321-1.674l-5.79-5.838
			c-0.438-0.439-0.438-0.688-0.139-0.982l0.599-0.594c0.334-0.33,0.589-0.252,1.044,0.211c0.623,0.629,0.987,0.68,1.41,0.262
			L1362.709,1525.529z M1356.662,1536.164l2.322,2.344c1.578,1.592,3.87,1.936,4.872,0.941c1.249-1.236,0.801-3.236-1.026-5.08
			l-2.157-2.176L1356.662,1536.164z M1362.115,1530.766l2.054,2.07c1.516,1.529,3.092,1.748,4.183,0.668
			c0.933-0.924,0.598-2.705-0.607-3.92l-2.198-2.217L1362.115,1530.766z"/>
		<path fill="#291717" d="M1375.686,1537.809c0.376-0.461,0.288-0.82-0.398-1.377c-0.506-0.408-0.609-0.654-0.312-1.02l0.532-0.656
			c0.265-0.324,0.511-0.35,0.992,0.041l4.532,3.68c0.479,0.393,0.508,0.639,0.241,0.963l-0.532,0.656
			c-0.297,0.365-0.559,0.312-1.06-0.098c-0.688-0.555-1.058-0.568-1.434-0.107l-6.988,8.602c-0.374,0.461-0.286,0.822,0.4,1.377
			c0.503,0.41,0.608,0.654,0.312,1.021l-0.531,0.652c-0.265,0.328-0.513,0.352-0.994-0.039l-4.53-3.682
			c-0.479-0.389-0.508-0.635-0.242-0.963l0.532-0.654c0.295-0.365,0.559-0.312,1.061,0.096c0.686,0.559,1.055,0.572,1.432,0.109
			L1375.686,1537.809z"/>
		<path fill="#291717" d="M1390.333,1549.305c-0.638-0.422-0.713-2.551-2.775-3.92c-1.031-0.684-2.771-1.154-3.773,0.354
			c-1.823,2.746,7.505,7.562,4.462,12.146c-1.7,2.561-5.951,2.301-9.34,0.053c-1.917-1.27-4.986-3.842-4.584-5.299
			c0.25-0.963,0.457-1.809,0.608-2.037c0.176-0.268,0.629-0.146,1.12,0.182l0.934,0.617c0.908,0.604,0.691,3.164,3.123,4.779
			c1.402,0.928,3.932,1.326,4.877-0.1c2.059-3.098-7.256-7.932-4.336-12.332c1.645-2.479,5.632-1.768,8.063-0.156
			c2.261,1.5,4.651,3.707,4.341,5.08c-0.191,0.822-0.346,1.316-0.455,1.482c-0.123,0.186-0.448,0.355-0.889,0.062L1390.333,1549.305
			z"/>
		<path fill="#291717" d="M1404.851,1552.867c2.764,1.393,4.409,2.582,4.185,3.549c-0.176,0.744-0.311,1.535-0.521,1.957
			c-0.145,0.287-0.453,0.242-1.269-0.166c-2.605-1.316-1.511-2.51-3.879-3.703c-3.684-1.857-6.632,0.791-7.98,3.467
			c-1.124,2.236-1.407,6.475,2.355,8.371c3.263,1.646,3.345-0.422,5.952,0.891c0.761,0.385,0.896,0.645,0.706,1.023
			c-0.213,0.42-0.815,0.836-1.603,1.412c-0.664,0.469-2.802,0.195-6.408-1.623c-4.475-2.254-6.777-6.855-4.318-11.742
			C1393.952,1552.562,1398.981,1549.908,1404.851,1552.867z"/>
		<path fill="#291717" d="M1412.301,1559.816c0.188-0.539-0.007-0.871-0.757-1.135c-0.974-0.34-1.174-0.568-1.019-1.012l0.304-0.867
			c0.132-0.373,0.358-0.396,0.86-0.221l6.058,2.125c0.611,0.217,0.82,0.42,0.706,0.748l-0.271,0.77
			c-0.198,0.562-0.523,0.605-1.302,0.33c-0.919-0.32-1.262-0.23-1.467,0.352l-2.612,7.432c-0.805,2.289,0.218,4.537,2.718,5.416
			c2.837,0.996,4.576-0.049,5.456-2.547l2.61-7.43c0.197-0.562-0.062-0.889-0.897-1.182c-0.611-0.215-0.792-0.408-0.636-0.854
			l0.279-0.795c0.139-0.396,0.363-0.502,0.948-0.295l5.504,1.93c0.583,0.207,0.692,0.428,0.552,0.824l-0.279,0.795
			c-0.156,0.443-0.418,0.484-1.031,0.268c-0.833-0.293-1.295-0.219-1.493,0.344l-2.874,8.176c-1.174,3.342-4.675,4.24-8.844,2.775
			c-3.559-1.25-6.686-4.08-5.388-7.771L1412.301,1559.816z"/>
		<path fill="#291717" d="M1432.296,1566.207c0.141-0.578-0.093-0.865-0.95-1.074c-0.629-0.154-0.829-0.33-0.717-0.787l0.198-0.818
			c0.101-0.408,0.314-0.533,0.915-0.387l5.666,1.381c0.601,0.146,0.732,0.357,0.631,0.766l-0.199,0.818
			c-0.11,0.457-0.37,0.52-0.999,0.367c-0.859-0.209-1.198-0.064-1.339,0.514l-2.626,10.752c-0.141,0.576,0.093,0.861,0.95,1.072
			c0.631,0.154,0.829,0.33,0.719,0.787l-0.199,0.818c-0.102,0.408-0.314,0.535-0.915,0.387l-5.667-1.381
			c-0.601-0.145-0.732-0.355-0.631-0.766l0.2-0.816c0.109-0.459,0.369-0.521,0.998-0.367c0.86,0.207,1.198,0.062,1.339-0.516
			L1432.296,1566.207z"/>
		<path fill="#291717" d="M1440.688,1582.287c-0.555-0.088-0.702-0.287-0.646-0.631l0.156-0.977
			c0.053-0.318,0.316-0.477,1.275-0.324c1.137,0.182,1.365-0.133,1.479-0.844l1.781-11.131l-1.106-0.176
			c-3.025-0.482-2.124,0.592-4.188,0.262c-1.078-0.172-1.146-0.309-1.103-0.578c0.066-0.416,0.799-1.453,1.654-2.871
			c0.125-0.232,0.378-0.318,1.251-0.18c1.396,0.225,0.977,0.986,2.549,1.236l6.693,1.066c2.443,0.389,1.349-0.586,3.356-0.268
			c0.989,0.156,1.156,0.41,1.105,0.727c-0.026,0.172-0.636,1.18-1.53,2.666c-0.242,0.389-0.511,0.396-1.442,0.248
			c-1.951-0.311-0.022-0.982-2.991-1.455l-0.989-0.156l-1.781,11.131c-0.114,0.709,0.007,1.078,1.142,1.258
			c0.958,0.154,1.161,0.387,1.11,0.707l-0.156,0.979c-0.055,0.342-0.257,0.482-0.812,0.395L1440.688,1582.287z"/>
		<path fill="#291717" d="M1473.305,1568.014c3.096,0.045,5.098,0.395,5.319,1.363c0.167,0.746,0.392,1.518,0.385,1.988
			c-0.004,0.32-0.301,0.418-1.214,0.404c-2.92-0.041-2.456-1.596-5.108-1.633c-4.127-0.059-5.622,3.611-5.664,6.611
			c-0.035,2.5,1.562,6.439,5.776,6.496c3.657,0.053,2.828-1.844,5.746-1.803c0.855,0.012,1.089,0.189,1.082,0.611
			c-0.007,0.471-0.369,1.107-0.822,1.971c-0.394,0.711-2.439,1.402-6.477,1.346c-5.012-0.07-9.097-3.197-9.02-8.674
			C1463.365,1572.508,1466.732,1567.922,1473.305,1568.014z"/>
		<path fill="#291717" d="M1489.981,1567.006c6.001-0.66,10.052,2.758,10.582,7.561c0.53,4.805-2.677,9.047-8.678,9.711
			c-6.001,0.662-10.056-2.781-10.583-7.586C1480.772,1571.889,1483.98,1567.67,1489.981,1567.006z M1491.65,1582.158
			c3.924-0.432,5.59-3.857,5.226-7.182c-0.367-3.328-2.738-6.283-6.661-5.85c-3.921,0.43-5.592,3.832-5.225,7.16
			C1485.357,1579.611,1487.73,1582.592,1491.65,1582.158z"/>
		<path fill="#291717" d="M1503.554,1568.625c-0.191-0.742-0.631-0.912-1.2-0.766c-1.001,0.256-1.312,0.105-1.437-0.373
			l-0.178-0.695c-0.116-0.457,0.053-0.629,0.653-0.783l5.367-1.373c0.741-0.191,1.071-0.096,1.472,0.516l6.63,10.314l0.057-0.014
			l0.479-12.139c0.011-0.666,0.356-0.984,0.812-1.102l5.539-1.418c0.543-0.141,0.825-0.111,0.924,0.271l0.227,0.889
			c0.119,0.455-0.075,0.658-0.987,0.893c-0.743,0.189-0.935,0.393-0.768,1.041l2.786,10.865c0.11,0.43,0.451,0.572,1.28,0.359
			c0.854-0.219,1.161-0.092,1.279,0.361l0.189,0.746c0.099,0.385-0.108,0.639-0.88,0.838l-5.311,1.363
			c-0.629,0.158-0.831,0.084-0.947-0.373l-0.203-0.791c-0.109-0.434,0.018-0.645,0.816-0.848c0.914-0.236,1.031-0.496,0.919-0.926
			l-2.981-11.633l-0.058,0.018l-0.849,14.605c-0.042,0.547-0.095,0.818-0.552,0.932l-1.685,0.434
			c-0.229,0.059-0.402-0.023-0.715-0.533l-7.984-12.268l-0.058,0.016l2.947,11.49c0.116,0.453,0.45,0.572,1.223,0.373
			c0.741-0.189,1.042-0.088,1.135,0.273l0.208,0.816c0.117,0.455-0.039,0.674-0.696,0.842l-5.568,1.43
			c-0.515,0.129-0.756,0.012-0.855-0.371l-0.188-0.742c-0.13-0.506,0.055-0.73,0.97-0.965c0.77-0.199,1.053-0.398,0.917-0.926
			L1503.554,1568.625z"/>
		<path fill="#291717" d="M1526.621,1561.834c-0.222-0.551-0.578-0.648-1.398-0.32c-0.601,0.242-0.866,0.215-1.04-0.223
			l-0.314-0.779c-0.156-0.393-0.058-0.619,0.519-0.85l6.811-2.729c3.391-1.359,6.688-1.293,7.912,1.766
			c1.223,3.057-0.877,5.34-4.815,6.918l-2.243,0.896l1.658,4.139c0.266,0.666,0.561,0.924,1.543,0.527
			c0.904-0.359,1.196-0.266,1.315,0.033l0.369,0.92c0.128,0.322,0.028,0.547-0.49,0.758l-5.825,2.334
			c-0.576,0.23-0.805,0.135-0.961-0.258l-0.312-0.777c-0.176-0.441-0.002-0.643,0.601-0.883c0.82-0.328,1.01-0.645,0.79-1.199
			L1526.621,1561.834z M1531.259,1564.537l2.023-0.811c2.298-0.92,3.51-1.939,2.81-3.686c-0.875-2.184-2.981-1.58-5.033-0.758
			l-1.641,0.656L1531.259,1564.537z"/>
		<path fill="#291717" d="M1547.14,1561.777c0.135,1.057,0.253,2.705,0.478,3.119c0.2,0.369,0.655,0.658,1.46,0.223
			c0.546-0.291,0.772-0.246,0.959,0.104l0.411,0.764c0.176,0.326-0.114,0.594-0.736,0.93l-4.772,2.574
			c-0.701,0.377-0.98,0.414-1.193,0.023l-0.446-0.826c-0.163-0.307,0.391-0.83,0.934-1.125c0.39-0.209,0.537-0.99,0.471-1.488
			l-1.176-9.939c-0.11-1.01-0.205-1.746-0.288-1.898c-0.128-0.238-0.546-0.268-1.168,0.068c-0.596,0.322-0.889,0.34-1.159-0.162
			l-0.364-0.676c-0.212-0.393-0.038-0.625,0.714-1.031l7.889-4.252c0.622-0.334,0.888-0.338,1.099,0.053l0.295,0.545
			c0.306,0.568,0.244,0.824-0.587,1.271c-0.545,0.295-0.732,0.564-0.581,0.848c0.152,0.283,0.618,0.652,1.438,1.361l7.378,6.541
			c0.636,0.557,1.165,0.609,1.761,0.287c0.599-0.322,1.019-0.352,1.265,0.105l0.376,0.697c0.2,0.371-0.002,0.619-0.494,0.887
			l-5.317,2.865c-0.363,0.195-0.645,0.234-0.82-0.092l-0.446-0.83c-0.165-0.303-0.016-0.523,0.606-0.859
			c0.726-0.391,0.796-0.822,0.572-1.238c-0.247-0.457-1.271-1.113-2.536-2.092L1547.14,1561.777z M1546.142,1552.168l-0.053,0.027
			l0.69,7.361l4.928-2.656L1546.142,1552.168z"/>
		<path fill="#291717" d="M1564.279,1558.73c-0.497,0.369-0.741,0.338-0.994,0l-0.502-0.678c-0.281-0.377-0.164-0.615,0.354-1.004
			c0.71-0.527,0.954-0.988,0.601-1.463l-6.589-8.857c-0.385-0.518-0.787-0.465-1.52,0.08c-0.615,0.457-0.868,0.461-1.105,0.143
			l-0.604-0.812c-0.223-0.299-0.117-0.502,0.475-0.941l4.304-3.201c0.567-0.422,0.815-0.238,1.323,0.004l12.502,5.598l0.048-0.035
			l-5.911-7.943c-0.354-0.479-0.866-0.375-1.574,0.152c-0.521,0.389-0.783,0.43-1.064,0.051l-0.501-0.674
			c-0.253-0.338-0.214-0.584,0.283-0.953l4.68-3.482c0.497-0.369,0.741-0.334,0.994,0.002l0.501,0.676
			c0.281,0.377,0.165,0.617-0.354,1.004c-0.711,0.527-0.955,0.988-0.601,1.465l7.919,10.645c0.297,0.396,0.125,0.709-0.254,0.99
			l-2.363,1.76c-0.237,0.176-0.444,0.145-0.748,0.033l-13.943-6.254l-0.049,0.035l6.516,8.758c0.354,0.475,0.867,0.373,1.574-0.154
			c0.521-0.387,0.783-0.428,1.064-0.053l0.504,0.678c0.251,0.338,0.211,0.58-0.286,0.949L1564.279,1558.73z"/>
		<path fill="#291717" d="M1575.63,1529.652c0.316,0.314,0.253,0.623-0.224,1.105c-0.479,0.48-0.521,0.77-0.258,1.029
			c0.211,0.211,0.515,0.221,0.924,0.334l5.829,1.545l0.042-0.045l-1.639-5.766c-0.103-0.352-0.217-0.588-0.429-0.801
			c-0.229-0.223-0.736-0.064-1.068,0.271c-0.455,0.459-0.857,0.477-1.104,0.232l-0.546-0.539c-0.334-0.332-0.271-0.641,0.104-1.018
			l4.151-4.184c0.455-0.463,0.724-0.486,0.952-0.26l0.739,0.732c0.264,0.262,0.165,0.535-0.209,0.912
			c-0.436,0.439-0.557,1.23-0.396,1.807l2.744,10.348c0.16,0.574,0.299,1.209,0.703,1.611c0.458,0.453,1.14,0.049,1.781-0.604
			c0.539-0.543,0.812-0.605,1.164-0.258l0.527,0.523c0.369,0.367,0.251,0.664-0.207,1.123l-3.507,3.535
			c-0.436,0.439-0.708,0.504-1.061,0.154l-0.598-0.592c-0.511-0.506-0.546-0.998-0.736-1.684l-0.673-2.449l-0.035-0.035
			l-9.635-1.992c-0.805-0.174-1.363-0.107-1.84,0.377c-0.478,0.48-0.884,0.576-1.166,0.295l-0.615-0.607
			c-0.299-0.299-0.242-0.531,0.193-0.971l4.483-4.52c0.456-0.459,0.708-0.502,0.99-0.223L1575.63,1529.652z"/>
	</g>
</g>
<g>
	<g>
		<path fill="#291717" d="M1375.863,1380.966h3.011c1.396,0,0.506-0.715,2.168-0.715c0.697,0,0.842,0.099,1.036,0.64
			c0.457,1.331,0.817,2.263,0.817,2.659c0,0.247-0.167,0.319-1.253,0.319c-1.612,0-0.915-0.787-2.721-0.787h-3.059v5.511h3.492
			c3.54,0,2.217-1.452,4.118-1.452c1.061,0,1.229,0.147,1.229,0.517c0,0.319-0.457,1.229-0.915,2.361
			c-0.218,0.541-0.483,0.688-1.952,0.688h-9.803c-0.506,0-0.651-0.174-0.651-0.591v-0.836c0-0.466,0.193-0.589,0.724-0.589
			c0.82,0,1.06-0.222,1.06-0.813v-10.995c0-0.591-0.239-0.813-1.06-0.813c-0.53,0-0.724-0.123-0.724-0.589v-0.835
			c0-0.418,0.146-0.592,0.651-0.592h10.189c0.312,0,0.527,0.099,0.651,0.442c0.312,1.009,0.673,2.067,0.673,2.313
			c0,0.321-0.291,0.664-0.987,0.664c-1.929,0-1.252-1.304-3.807-1.304h-2.89V1380.966z"/>
		<path fill="#291717" d="M1395.553,1377.595c-0.629,0-1.641-1.722-3.663-1.722c-1.012,0-2.408,0.565-2.408,2.362
			c0,3.272,8.525,2.14,8.525,7.602c0,3.05-3.008,5.166-6.333,5.166c-1.878,0-5.13-0.442-5.515-1.869
			c-0.267-0.935-0.506-1.749-0.506-2.017c0-0.321,0.36-0.468,0.842-0.468h0.915c0.891,0,1.902,2.238,4.288,2.238
			c1.372,0,3.274-1.058,3.274-2.755c0-3.69-8.525-2.582-8.525-7.824c0-2.951,3.034-4.55,5.42-4.55c2.215,0,4.84,0.517,5.249,1.818
			c0.242,0.788,0.363,1.28,0.363,1.478c0,0.22-0.146,0.541-0.581,0.541H1395.553z"/>
		<path fill="#291717" d="M1402.567,1390.707c-0.457,0-0.6-0.174-0.6-0.517v-0.985c0-0.319,0.191-0.515,0.987-0.515
			c0.938,0,1.084-0.345,1.084-1.06v-11.193h-0.917c-2.503,0-1.636,0.91-3.347,0.91c-0.891,0-0.964-0.123-0.964-0.394
			c0-0.418,0.458-1.55,0.964-3.074c0.072-0.246,0.264-0.37,0.987-0.37c1.156,0,0.917,0.812,2.216,0.812h5.54
			c2.022,0,1.011-0.787,2.674-0.787c0.817,0,0.987,0.222,0.987,0.541c0,0.171-0.36,1.256-0.891,2.854
			c-0.146,0.417-0.363,0.466-1.133,0.466c-1.613,0-0.145-0.958-2.602-0.958h-0.817v11.193c0,0.714,0.145,1.06,1.082,1.06
			c0.796,0,0.989,0.196,0.989,0.515v0.985c0,0.343-0.146,0.517-0.603,0.517H1402.567z"/>
		<path fill="#291717" d="M1413.343,1387.754c0.868,0,1.542,0.616,1.542,1.574c0,0.961-0.674,1.575-1.542,1.575
			c-0.866,0-1.542-0.614-1.542-1.575C1411.801,1388.37,1412.477,1387.754,1413.343,1387.754z"/>
		<path fill="#291717" d="M1524.527,1388.616c0-0.444,0.265-0.616,0.555-0.935l6.333-6.52c0.748-0.787,1.565-1.476,1.565-2.533
			c0-1.478-1.444-2.656-2.816-2.656c-2.266,0-2.145,1.671-3.974,1.671h-0.917c-0.288,0-0.481-0.196-0.481-0.343
			c0-0.171,0.048-0.321,0.097-0.468l0.554-1.452c0.458-1.229,2.602-1.523,4.337-1.523c2.335,0,5.875,1.106,5.875,4.748
			c0,2.509-1.662,3.69-3.443,5.486l-4.433,4.501h3.758c2.337,0,1.735-1.427,3.107-1.427h0.891c0.29,0,0.603,0.22,0.603,0.466
			c0,0.198-0.049,0.396-0.191,0.765l-0.748,1.794c-0.121,0.321-0.288,0.517-0.987,0.517h-9.056c-0.387,0-0.627-0.196-0.627-0.591
			V1388.616z"/>
		<path fill="#291717" d="M1543.998,1373.856c4.336,0,5.878,4.919,5.878,8.51c0,3.593-1.542,8.537-5.878,8.537
			c-4.337,0-5.878-4.943-5.878-8.537C1538.12,1378.775,1539.661,1373.856,1543.998,1373.856z M1543.998,1388.787
			c2.48,0,3.203-4.354,3.203-6.421c0-2.067-0.723-6.395-3.203-6.395s-3.204,4.328-3.204,6.395
			C1540.794,1384.434,1541.518,1388.787,1543.998,1388.787z"/>
		<path fill="#291717" d="M1554.651,1390.707c-0.457,0-0.624-0.147-0.624-0.541v-0.886c0-0.466,0.215-0.589,0.987-0.589
			c1.106,0,1.396-0.272,1.396-1.156v-9.546c0-0.345-0.193-0.614-0.458-0.614c-0.529,0-1.325,0.418-1.613,0.418
			c-0.193,0-0.337-0.149-0.337-0.468v-1.157c0-0.295,0.119-0.394,0.409-0.541l3.25-1.599c0.266-0.123,0.506-0.171,0.796-0.171
			c0.36,0,0.627,0.417,0.627,1.106v12.523c0,0.933,0.312,1.205,1.565,1.205c0.648,0,0.843,0.147,0.843,0.541v0.935
			c0,0.367-0.218,0.541-0.603,0.541H1554.651z"/>
		<path fill="#291717" d="M1564.729,1388.616c0-0.444,0.264-0.616,0.555-0.935l6.333-6.52c0.747-0.787,1.565-1.476,1.565-2.533
			c0-1.478-1.444-2.656-2.817-2.656c-2.265,0-2.144,1.671-3.973,1.671h-0.918c-0.287,0-0.481-0.196-0.481-0.343
			c0-0.171,0.049-0.321,0.097-0.468l0.555-1.452c0.457-1.229,2.602-1.523,4.336-1.523c2.336,0,5.876,1.106,5.876,4.748
			c0,2.509-1.662,3.69-3.443,5.486l-4.434,4.501h3.759c2.337,0,1.734-1.427,3.106-1.427h0.891c0.29,0,0.603,0.22,0.603,0.466
			c0,0.198-0.048,0.396-0.191,0.765l-0.747,1.794c-0.121,0.321-0.288,0.517-0.987,0.517h-9.056c-0.387,0-0.627-0.196-0.627-0.591
			V1388.616z"/>
	</g>
</g>
<path fill="#FFFFFF" d="M1442.963,1352.277c1.79,1.373,3.143,4.095,5.539,4.282c2.725,0.209,2.883-3.136,2.289-5.128
	c-0.633-2.122-1.901-4.141-3.027-6.161c-0.574-1.023-1.216-2.035-1.751-3.084c1.298,0.472,2.998,0.213,4.014-0.343
	c3.87-2.116,3.608-6.322,4.123-10.095c0.33,2.237,2.155,4.128,5.618,5.02c3.039,0.782,6.441-0.839,7.062-1.543
	c-1.252,3.308-3.143,9.418,1.409,11.165c1.071,0.409,2.261,0.224,3.276-0.253c2.166-1.016,4.07-3.334,5.229-5.366
	c0.45-0.791,0.803-1.627,1.077-2.5c0.151-0.496,0.901-2.356,0.664-2.81c1.46,2.799,1.845,5.339,5.79,5.296
	c3.547-0.037,5.933-2.752,12.272-2.333c0,0-8.824,5.049-6.788,9.918c1.07,2.558,4.197,3.657,6.463,4.86
	c-4.014,0.014-7.938,0.292-11.169,2.098c-2.029,1.135-4.578,4.823-1.493,7.161c1.563,1.184,3.677,1.456,5.428,1.611
	c1.77,0.154,3.474-0.453,5.288,0.015c-1.079,0.741-1.39,1.735-1.306,3.05c0.065,1.091,1.139,2.216,2.019,3.035
	c1.488,1.372,3.219,2.595,5.042,3.399c-3.54-0.303-8.732-0.072-9.198,3.901c-0.121,1.056-0.028,2.489,0.655,3.534
	c-1.061-0.442-2.104-0.972-3.149-1.425c-2.01-0.873-4.206-1.792-6.291-1.688c-1.341,0.068-2.87,0.609-3.246,1.911
	c-0.721,2.514,4.539,3.908,4.81,4.591c0.185,0.479-2.904,1.834-3.881,2.283c-2.094,0.952-4.658,1.161-7.151,0.677
	c-3.459-0.668-6.729-2.293-9.671-4.539c-1.607-1.223-3.16-2.505-4.405-4.042c-0.109,0.215-0.218,0.433-0.327,0.646
	c-0.792,1.537-1.687,3.047-2.8,4.49c-1.314,1.675-3.027,3.184-5.066,4.147c-2.027,0.979-3.876,1.315-6.027,1.376l-1.966-3.404
	c4.75,0.547,8.574-1.056,10.969-3.87c1.139-1.293,2.111-2.766,3.011-4.328c0.183-0.316,0.362-0.642,0.541-0.963
	c0.819-1.504,1.603-3.061,2.414-4.602c3.241-6.155,6.837-12.202,11.731-17.208c1.108-1.131,2.521-2.422,3.935-3.149
	c-1.333,0.559-2.763,1.582-3.97,2.474c-3.396,2.514-6.186,5.781-8.603,9.226c-1.783,2.538-3.208,5.297-4.78,7.96
	c-0.924,1.539-1.808,3.101-2.74,4.596c0.029,0.035,0.062,0.075,0.086,0.11c-0.039-0.016-0.081-0.033-0.125-0.049
	c-1.716-0.646-3.336-1.623-4.926-2.658c-3.145-2.056-5.774-4.704-7.406-7.976c-1.319-2.645-1.574-5.439-1.137-8.029
	C1441.624,1355.744,1441.937,1353.775,1442.963,1352.277z"/>
<path fill="#3B2221" d="M1442.963,1352.277c1.79,1.373,3.143,4.095,5.539,4.282c2.725,0.209,2.883-3.136,2.289-5.128
	c-0.633-2.122-1.901-4.141-3.027-6.161c-0.574-1.023-1.216-2.035-1.751-3.084c1.298,0.472,2.998,0.213,4.014-0.343
	c3.87-2.116,3.608-6.322,4.123-10.095c0.33,2.237,2.155,4.128,5.618,5.02c3.039,0.782,6.441-0.839,7.062-1.543
	c-1.252,3.308-3.143,9.418,1.409,11.165c1.071,0.409,2.261,0.224,3.276-0.253c2.166-1.016,4.07-3.334,5.229-5.366
	c0.45-0.791,0.803-1.627,1.077-2.5c0.151-0.496,0.901-2.356,0.664-2.81c1.46,2.799,1.845,5.339,5.79,5.296
	c3.547-0.037,5.933-2.752,12.272-2.333c0,0-8.824,5.049-6.788,9.918c1.07,2.558,4.197,3.657,6.463,4.86
	c-4.014,0.014-7.938,0.292-11.169,2.098c-2.029,1.135-4.578,4.823-1.493,7.161c1.563,1.184,3.677,1.456,5.428,1.611
	c1.77,0.154,3.474-0.453,5.288,0.015c-1.079,0.741-1.39,1.735-1.306,3.05c0.065,1.091,1.139,2.216,2.019,3.035
	c1.488,1.372,3.219,2.595,5.042,3.399c-3.54-0.303-8.732-0.072-9.198,3.901c-0.121,1.056-0.028,2.489,0.655,3.534
	c-1.061-0.442-2.104-0.972-3.149-1.425c-2.01-0.873-4.206-1.792-6.291-1.688c-1.341,0.068-2.87,0.609-3.246,1.911
	c-0.721,2.514,4.539,3.908,4.81,4.591c0.185,0.479-2.904,1.834-3.881,2.283c-2.094,0.952-4.658,1.161-7.151,0.677
	c-3.459-0.668-6.729-2.293-9.671-4.539c-1.607-1.223-3.16-2.505-4.405-4.042c-0.109,0.215-0.218,0.433-0.327,0.646
	c-0.792,1.537-1.687,3.047-2.8,4.49c-1.314,1.675-3.027,3.184-5.066,4.147c-2.027,0.979-3.876,1.315-6.027,1.376l-1.966-3.404
	c4.75,0.547,8.574-1.056,10.969-3.87c1.139-1.293,2.111-2.766,3.011-4.328c0.183-0.316,0.362-0.642,0.541-0.963
	c0.819-1.504,1.603-3.061,2.414-4.602c3.241-6.155,6.837-12.202,11.731-17.208c1.108-1.131,2.521-2.422,3.935-3.149
	c-1.333,0.559-2.763,1.582-3.97,2.474c-3.396,2.514-6.186,5.781-8.603,9.226c-1.783,2.538-3.208,5.297-4.78,7.96
	c-0.924,1.539-1.808,3.101-2.74,4.596c0.029,0.035,0.062,0.075,0.086,0.11c-0.039-0.016-0.081-0.033-0.125-0.049
	c-1.716-0.646-3.336-1.623-4.926-2.658c-3.145-2.056-5.774-4.704-7.406-7.976c-1.319-2.645-1.574-5.439-1.137-8.029
	C1441.624,1355.744,1441.937,1353.775,1442.963,1352.277z"/>
<path fill="#3B2221" d="M1254.854,1447.76c0-2.025-0.85-2.742-2.155-2.742c-2.287,0-2.874-0.59-2.874-1.896v-1.894
	c0-1.24,0.457-1.567,1.829-1.567h12.279c1.698,0,2.351,0.457,2.874,2.287l8.557,30.697h0.13l7.707-30.697
	c0.394-1.7,1.307-2.287,2.353-2.287h12.671c1.24,0,1.83,0.262,1.83,1.306v2.417c0,1.24-0.523,1.634-2.612,1.634
	c-1.7,0-2.222,0.392-2.222,2.155v29.587c0,1.177,0.653,1.764,2.547,1.764c1.959,0,2.549,0.523,2.549,1.764v2.025
	c0,1.044-0.59,1.567-2.354,1.567h-12.147c-1.438,0-1.829-0.327-1.829-1.567v-2.155c0-1.177,0.392-1.634,2.221-1.634
	c2.089,0,2.48-0.587,2.48-1.764v-31.679h-0.13l-9.862,36.774c-0.392,1.372-0.653,2.024-1.697,2.024h-3.854
	c-0.523,0-0.85-0.327-1.24-1.829l-10.387-36.576h-0.129v31.285c0,1.242,0.652,1.764,2.416,1.764c1.698,0,2.285,0.457,2.285,1.438
	v2.221c0,1.24-0.457,1.697-1.959,1.697h-12.737c-1.176,0-1.634-0.457-1.634-1.502v-2.024c0-1.373,0.523-1.83,2.615-1.83
	c1.761,0,2.48-0.325,2.48-1.764V1447.76z"/>
<path fill="#3B2221" d="M1316.37,1468.727c-0.849,2.613-2.351,6.598-2.351,7.838c0,1.11,0.587,2.353,2.612,2.353
	c1.37,0,1.763,0.392,1.763,1.437v2.286c0,0.979-0.849,1.24-2.416,1.24h-12.02c-1.764,0-2.351-0.262-2.351-1.436v-2.482
	c0-0.915,1.634-1.438,3.003-1.438c0.981,0,2.092-1.632,2.483-2.874l8.165-24.559c0.849-2.482,1.436-4.31,1.436-4.767
	c0-0.72-0.783-1.307-2.351-1.307c-1.502,0-2.089-0.328-2.089-1.829v-2.025c0-1.175,0.587-1.502,2.48-1.502h19.856
	c1.567,0,2.091,0.327,2.091,1.502v1.634c0,1.697-0.394,2.221-2.482,2.221c-1.372,0-2.025,0.392-2.025,1.24s0.523,2.287,1.372,4.963
	l7.512,24.429c0.653,2.091,1.632,2.874,3.134,2.874c1.504,0,2.354,0.457,2.354,1.83v2.091c0,1.108-0.653,1.436-1.896,1.436h-13.389
	c-0.915,0-1.502-0.262-1.502-1.24v-2.482c0-0.915,0.523-1.24,2.091-1.24c1.827,0,2.417-0.915,2.417-2.157
	c0-1.37-1.309-4.18-2.744-8.033H1316.37z M1324.535,1445.147h-0.133l-6.4,17.961h12.41L1324.535,1445.147z"/>
<path fill="#3B2221" d="M1352.741,1447.173c0-1.568-0.655-2.155-2.614-2.155c-1.437,0-1.96-0.328-1.96-1.568v-2.221
	c0-1.11,0.394-1.567,1.764-1.567h16.264c8.101,0,14.828,3.397,14.828,12.083c0,8.688-6.206,12.216-15.611,12.216h-5.356v11.756
	c0,1.893,0.392,2.808,2.744,2.808c2.155,0,2.679,0.523,2.679,1.372v2.612c0,0.915-0.394,1.372-1.634,1.372h-13.913
	c-1.37,0-1.764-0.457-1.764-1.567v-2.221c0-1.24,0.523-1.568,1.96-1.568c1.959,0,2.614-0.587,2.614-2.155V1447.173z
	 M1360.055,1458.341h4.834c5.486,0,8.817-1.306,8.817-6.269c0-6.206-4.833-6.795-9.732-6.795h-3.919V1458.341z"/>
<path fill="#3B2221" d="M1389.504,1447.173c0-1.568-0.653-2.155-2.872-2.155c-1.438,0-1.962-0.328-1.962-1.568v-2.221
	c0-1.11,0.394-1.567,1.764-1.567H1401c1.177,0,1.697,0.392,1.697,1.306v2.612c0,0.981-0.521,1.438-2.871,1.438
	c-2.354,0-3.007,0.392-3.007,2.155v31.091h6.729c9.601,0,5.55-3.854,11.168-3.854c2.874,0,3.332,0.392,3.332,1.372
	c0,0.849-1.242,3.266-2.482,6.27c-0.588,1.438-1.307,1.829-5.291,1.829h-23.842c-1.37,0-1.764-0.457-1.764-1.567v-2.221
	c0-1.24,0.523-1.568,1.962-1.568c2.219,0,2.872-0.587,2.872-2.155V1447.173z"/>
<path fill="#3B2221" d="M1432.474,1458.016h8.165c3.789,0,1.372-1.896,5.878-1.896c1.896,0,2.287,0.262,2.811,1.698
	c1.24,3.526,2.219,6.01,2.219,7.054c0,0.653-0.455,0.852-3.396,0.852c-4.376,0-2.482-2.092-7.382-2.092h-8.295v14.632h9.472
	c9.601,0,6.01-3.854,11.168-3.854c2.874,0,3.332,0.392,3.332,1.372c0,0.849-1.24,3.266-2.48,6.27
	c-0.59,1.438-1.309,1.829-5.291,1.829h-26.586c-1.369,0-1.764-0.457-1.764-1.567v-2.221c0-1.24,0.523-1.568,1.96-1.568
	c2.221,0,2.874-0.587,2.874-2.155v-29.195c0-1.568-0.653-2.155-2.874-2.155c-1.437,0-1.96-0.328-1.96-1.568v-2.221
	c0-1.11,0.395-1.567,1.764-1.567h27.631c0.849,0,1.436,0.262,1.764,1.176c0.849,2.677,1.827,5.487,1.827,6.14
	c0,0.85-0.783,1.764-2.677,1.764c-5.227,0-3.397-3.463-10.319-3.463h-7.84V1458.016z"/>
<path fill="#3B2221" d="M1503.98,1449.066c-1.697,0-4.441-4.572-9.929-4.572c-2.741,0-6.53,1.502-6.53,6.271
	c0,8.687,23.122,5.683,23.122,20.183c0,8.099-8.165,13.715-17.179,13.715c-5.095,0-13.913-1.174-14.957-4.963
	c-0.72-2.483-1.372-4.638-1.372-5.356c0-0.85,0.98-1.24,2.286-1.24h2.48c2.417,0,5.161,5.943,11.629,5.943
	c3.723,0,8.882-2.809,8.882-7.316c0-9.796-23.123-6.858-23.123-20.77c0-7.839,8.231-12.083,14.696-12.083
	c6.01,0,13.13,1.37,14.24,4.833c0.653,2.09,0.979,3.396,0.979,3.919c0,0.587-0.391,1.437-1.567,1.437H1503.98z"/>
<path fill="#3B2221" d="M1522.979,1483.88c-1.242,0-1.634-0.457-1.634-1.372v-2.612c0-0.849,0.523-1.372,2.679-1.372
	c2.546,0,2.94-0.915,2.94-2.808v-29.72h-2.483c-6.792,0-4.441,2.417-9.079,2.417c-2.417,0-2.612-0.326-2.612-1.045
	c0-1.11,1.24-4.114,2.612-8.165c0.195-0.652,0.719-0.979,2.678-0.979c3.136,0,2.483,2.155,6.01,2.155h15.021
	c5.486,0,2.744-2.091,7.25-2.091c2.221,0,2.679,0.589,2.679,1.438c0,0.458-0.979,3.332-2.417,7.576
	c-0.392,1.11-0.979,1.242-3.069,1.242c-4.376,0-0.392-2.549-7.055-2.549h-2.221v29.72c0,1.893,0.394,2.808,2.939,2.808
	c2.155,0,2.679,0.523,2.679,1.372v2.612c0,0.915-0.392,1.372-1.634,1.372H1522.979z"/>
<path fill="#3B2221" d="M1555.824,1447.173c0-1.568-0.653-2.155-2.613-2.155c-1.436,0-1.959-0.328-1.959-1.568v-2.221
	c0-1.11,0.392-1.567,1.764-1.567h16.592c8.424,0,15.676,2.416,15.676,12.345c0,5.944-4.18,10.582-10.06,11.169l13.13,17.179
	c0.979,1.24,1.174,1.829,1.174,2.416c0,0.523-2.48,2.417-3.656,2.417c-0.523,0-1.111-0.915-2.549-2.547l-17.309-19.27h-2.874v12.346
	c0,1.893,0.392,2.808,3.202,2.808c2.154,0,2.676,0.523,2.676,1.372v2.612c0,0.915-0.392,1.372-1.632,1.372h-14.37
	c-1.372,0-1.764-0.457-1.764-1.567v-2.221c0-1.24,0.523-1.568,1.959-1.568c1.96,0,2.613-0.587,2.613-2.155V1447.173z
	 M1563.14,1458.016h5.944c6.53,0,8.884-2.025,8.884-6.337c0-4.572-2.874-6.401-9.667-6.401h-5.161V1458.016z"/>
<path fill="#3B2221" d="M1603.038,1458.016h8.165c3.789,0,1.372-1.896,5.878-1.896c1.896,0,2.287,0.262,2.811,1.698
	c1.24,3.526,2.219,6.01,2.219,7.054c0,0.653-0.456,0.852-3.396,0.852c-4.376,0-2.482-2.092-7.382-2.092h-8.295v14.632h9.472
	c9.601,0,6.01-3.854,11.168-3.854c2.874,0,3.332,0.392,3.332,1.372c0,0.849-1.24,3.266-2.483,6.27
	c-0.587,1.438-1.306,1.829-5.288,1.829h-26.586c-1.37,0-1.764-0.457-1.764-1.567v-2.221c0-1.24,0.523-1.568,1.959-1.568
	c2.222,0,2.875-0.587,2.875-2.155v-29.195c0-1.568-0.653-2.155-2.875-2.155c-1.436,0-1.959-0.328-1.959-1.568v-2.221
	c0-1.11,0.394-1.567,1.764-1.567h27.63c0.85,0,1.437,0.262,1.764,1.176c0.849,2.677,1.827,5.487,1.827,6.14
	c0,0.85-0.782,1.764-2.676,1.764c-5.227,0-3.397-3.463-10.319-3.463h-7.84V1458.016z"/>
<path fill="#3B2221" d="M1642.937,1458.016h8.165c3.789,0,1.372-1.896,5.878-1.896c1.896,0,2.287,0.262,2.81,1.698
	c1.24,3.526,2.219,6.01,2.219,7.054c0,0.653-0.455,0.852-3.395,0.852c-4.376,0-2.482-2.092-7.382-2.092h-8.295v14.632h9.471
	c9.601,0,6.01-3.854,11.169-3.854c2.874,0,3.332,0.392,3.332,1.372c0,0.849-1.24,3.266-2.483,6.27
	c-0.587,1.438-1.306,1.829-5.288,1.829h-26.586c-1.37,0-1.764-0.457-1.764-1.567v-2.221c0-1.24,0.523-1.568,1.959-1.568
	c2.222,0,2.875-0.587,2.875-2.155v-29.195c0-1.568-0.653-2.155-2.875-2.155c-1.436,0-1.959-0.328-1.959-1.568v-2.221
	c0-1.11,0.394-1.567,1.764-1.567h27.63c0.849,0,1.437,0.262,1.764,1.176c0.849,2.677,1.827,5.487,1.827,6.14
	c0,0.85-0.782,1.764-2.676,1.764c-5.227,0-3.397-3.463-10.319-3.463h-7.84V1458.016z"/>
<path fill="#3B2221" d="M1678.982,1483.88c-1.242,0-1.634-0.457-1.634-1.372v-2.612c0-0.849,0.523-1.372,2.679-1.372
	c2.546,0,2.939-0.915,2.939-2.808v-29.72h-2.482c-6.793,0-4.442,2.417-9.08,2.417c-2.416,0-2.612-0.326-2.612-1.045
	c0-1.11,1.24-4.114,2.612-8.165c0.196-0.652,0.72-0.979,2.679-0.979c3.136,0,2.482,2.155,6.01,2.155h15.021
	c5.486,0,2.744-2.091,7.25-2.091c2.221,0,2.679,0.589,2.679,1.438c0,0.458-0.979,3.332-2.417,7.576
	c-0.392,1.11-0.979,1.242-3.07,1.242c-4.376,0-0.392-2.549-7.054-2.549h-2.221v29.72c0,1.893,0.393,2.808,2.939,2.808
	c2.155,0,2.679,0.523,2.679,1.372v2.612c0,0.915-0.392,1.372-1.634,1.372H1678.982z"/>
<path fill="#F0E9D3" d="M1250.348,1443.256c0-2.025-0.849-2.742-2.155-2.742c-2.287,0-2.874-0.589-2.874-1.896v-1.893
	c0-1.24,0.457-1.568,1.83-1.568h12.278c1.698,0,2.351,0.458,2.874,2.287l8.557,30.698h0.13l7.707-30.698
	c0.394-1.7,1.307-2.287,2.354-2.287h12.67c1.24,0,1.83,0.262,1.83,1.307v2.416c0,1.24-0.523,1.634-2.612,1.634
	c-1.7,0-2.222,0.392-2.222,2.155v29.588c0,1.176,0.653,1.763,2.547,1.763c1.959,0,2.549,0.523,2.549,1.764v2.025
	c0,1.045-0.59,1.568-2.354,1.568h-12.146c-1.438,0-1.83-0.328-1.83-1.568v-2.154c0-1.177,0.392-1.635,2.221-1.635
	c2.09,0,2.48-0.587,2.48-1.763v-31.679h-0.13l-9.862,36.773c-0.391,1.372-0.652,2.025-1.697,2.025h-3.854
	c-0.523,0-0.85-0.328-1.24-1.83l-10.386-36.575h-0.13v31.285c0,1.242,0.653,1.763,2.416,1.763c1.698,0,2.285,0.458,2.285,1.438
	v2.221c0,1.24-0.457,1.698-1.959,1.698h-12.736c-1.177,0-1.635-0.458-1.635-1.502v-2.025c0-1.372,0.523-1.83,2.615-1.83
	c1.764,0,2.48-0.325,2.48-1.763V1443.256z"/>
<path fill="#F0E9D3" d="M1311.864,1464.224c-0.849,2.612-2.351,6.597-2.351,7.837c0,1.11,0.587,2.354,2.612,2.354
	c1.37,0,1.764,0.391,1.764,1.436v2.287c0,0.979-0.849,1.24-2.417,1.24h-12.02c-1.764,0-2.351-0.262-2.351-1.437v-2.482
	c0-0.915,1.634-1.438,3.004-1.438c0.98,0,2.091-1.631,2.482-2.874l8.165-24.558c0.849-2.482,1.436-4.311,1.436-4.768
	c0-0.719-0.783-1.307-2.351-1.307c-1.502,0-2.089-0.327-2.089-1.829v-2.025c0-1.174,0.587-1.502,2.48-1.502h19.856
	c1.568,0,2.092,0.328,2.092,1.502v1.634c0,1.697-0.394,2.221-2.483,2.221c-1.372,0-2.025,0.392-2.025,1.24
	c0,0.85,0.523,2.287,1.373,4.964l7.512,24.428c0.652,2.092,1.631,2.874,3.133,2.874c1.504,0,2.354,0.458,2.354,1.83v2.091
	c0,1.108-0.653,1.437-1.896,1.437h-13.39c-0.915,0-1.502-0.262-1.502-1.24v-2.482c0-0.915,0.523-1.24,2.091-1.24
	c1.827,0,2.417-0.915,2.417-2.157c0-1.37-1.309-4.181-2.744-8.033H1311.864z M1320.029,1440.644h-0.133l-6.4,17.962h12.41
	L1320.029,1440.644z"/>
<path fill="#F0E9D3" d="M1348.235,1442.669c0-1.567-0.653-2.155-2.614-2.155c-1.437,0-1.96-0.327-1.96-1.567v-2.221
	c0-1.11,0.394-1.568,1.764-1.568h16.264c8.102,0,14.828,3.397,14.828,12.083c0,8.688-6.206,12.216-15.61,12.216h-5.357v11.756
	c0,1.894,0.394,2.808,2.744,2.808c2.155,0,2.679,0.523,2.679,1.373v2.612c0,0.914-0.394,1.372-1.634,1.372h-13.913
	c-1.37,0-1.764-0.458-1.764-1.568v-2.221c0-1.24,0.523-1.568,1.96-1.568c1.961,0,2.614-0.587,2.614-2.154V1442.669z
	 M1355.549,1453.838h4.834c5.486,0,8.817-1.307,8.817-6.27c0-6.205-4.833-6.795-9.732-6.795h-3.919V1453.838z"/>
<path fill="#F0E9D3" d="M1384.998,1442.669c0-1.567-0.653-2.155-2.872-2.155c-1.438,0-1.962-0.327-1.962-1.567v-2.221
	c0-1.11,0.395-1.568,1.764-1.568h14.566c1.177,0,1.697,0.392,1.697,1.307v2.612c0,0.98-0.521,1.438-2.871,1.438
	c-2.354,0-3.006,0.392-3.006,2.155v31.092h6.729c9.601,0,5.55-3.855,11.168-3.855c2.875,0,3.332,0.392,3.332,1.372
	c0,0.85-1.242,3.266-2.482,6.27c-0.588,1.438-1.307,1.83-5.291,1.83h-23.842c-1.369,0-1.764-0.458-1.764-1.568v-2.221
	c0-1.24,0.523-1.568,1.962-1.568c2.219,0,2.872-0.587,2.872-2.154V1442.669z"/>
<path fill="#F0E9D3" d="M1427.969,1453.513h8.164c3.789,0,1.372-1.896,5.878-1.896c1.896,0,2.287,0.262,2.811,1.697
	c1.24,3.527,2.219,6.01,2.219,7.055c0,0.652-0.455,0.851-3.396,0.851c-4.376,0-2.482-2.091-7.382-2.091h-8.294v14.632h9.471
	c9.601,0,6.01-3.855,11.168-3.855c2.875,0,3.332,0.392,3.332,1.372c0,0.85-1.24,3.266-2.482,6.27
	c-0.588,1.438-1.307,1.83-5.289,1.83h-26.586c-1.369,0-1.764-0.458-1.764-1.568v-2.221c0-1.24,0.523-1.568,1.96-1.568
	c2.221,0,2.874-0.587,2.874-2.154v-29.196c0-1.567-0.653-2.155-2.874-2.155c-1.437,0-1.96-0.327-1.96-1.567v-2.221
	c0-1.11,0.395-1.568,1.764-1.568h27.631c0.849,0,1.436,0.262,1.764,1.177c0.849,2.676,1.827,5.486,1.827,6.14
	c0,0.849-0.783,1.764-2.677,1.764c-5.227,0-3.396-3.464-10.319-3.464h-7.839V1453.513z"/>
<path fill="#F0E9D3" d="M1499.475,1444.562c-1.697,0-4.441-4.572-9.928-4.572c-2.742,0-6.531,1.502-6.531,6.271
	c0,8.687,23.122,5.683,23.122,20.183c0,8.099-8.165,13.715-17.179,13.715c-5.095,0-13.913-1.174-14.957-4.963
	c-0.719-2.482-1.372-4.638-1.372-5.356c0-0.849,0.98-1.24,2.287-1.24h2.479c2.417,0,5.161,5.943,11.629,5.943
	c3.723,0,8.882-2.808,8.882-7.315c0-9.797-23.122-6.858-23.122-20.77c0-7.84,8.23-12.083,14.695-12.083
	c6.01,0,13.13,1.369,14.24,4.833c0.653,2.089,0.979,3.396,0.979,3.919c0,0.587-0.391,1.436-1.567,1.436H1499.475z"/>
<path fill="#F0E9D3" d="M1518.474,1479.377c-1.242,0-1.634-0.458-1.634-1.372v-2.612c0-0.85,0.523-1.373,2.679-1.373
	c2.546,0,2.94-0.914,2.94-2.808v-29.72h-2.483c-6.792,0-4.441,2.417-9.079,2.417c-2.417,0-2.612-0.325-2.612-1.044
	c0-1.111,1.24-4.115,2.612-8.165c0.195-0.653,0.719-0.979,2.678-0.979c3.137,0,2.483,2.154,6.011,2.154h15.021
	c5.486,0,2.744-2.091,7.25-2.091c2.222,0,2.679,0.59,2.679,1.438c0,0.457-0.979,3.331-2.417,7.575
	c-0.391,1.11-0.979,1.242-3.069,1.242c-4.376,0-0.392-2.549-7.055-2.549h-2.221v29.72c0,1.894,0.394,2.808,2.94,2.808
	c2.154,0,2.678,0.523,2.678,1.373v2.612c0,0.914-0.392,1.372-1.634,1.372H1518.474z"/>
<path fill="#F0E9D3" d="M1551.318,1442.669c0-1.567-0.653-2.155-2.612-2.155c-1.437,0-1.96-0.327-1.96-1.567v-2.221
	c0-1.11,0.392-1.568,1.764-1.568h16.592c8.424,0,15.676,2.417,15.676,12.345c0,5.944-4.18,10.582-10.06,11.169l13.13,17.179
	c0.979,1.24,1.174,1.829,1.174,2.417c0,0.522-2.48,2.416-3.656,2.416c-0.523,0-1.11-0.914-2.549-2.546l-17.309-19.27h-2.874v12.345
	c0,1.894,0.392,2.808,3.202,2.808c2.155,0,2.676,0.523,2.676,1.373v2.612c0,0.914-0.391,1.372-1.631,1.372h-14.371
	c-1.372,0-1.764-0.458-1.764-1.568v-2.221c0-1.24,0.523-1.568,1.96-1.568c1.959,0,2.612-0.587,2.612-2.154V1442.669z
	 M1558.634,1453.513h5.944c6.531,0,8.884-2.025,8.884-6.338c0-4.571-2.874-6.401-9.667-6.401h-5.161V1453.513z"/>
<path fill="#F0E9D3" d="M1598.532,1453.513h8.165c3.789,0,1.372-1.896,5.878-1.896c1.896,0,2.287,0.262,2.811,1.697
	c1.24,3.527,2.219,6.01,2.219,7.055c0,0.652-0.455,0.851-3.396,0.851c-4.376,0-2.482-2.091-7.382-2.091h-8.295v14.632h9.472
	c9.601,0,6.01-3.855,11.168-3.855c2.874,0,3.332,0.392,3.332,1.372c0,0.85-1.24,3.266-2.48,6.27c-0.59,1.438-1.309,1.83-5.291,1.83
	h-26.586c-1.37,0-1.764-0.458-1.764-1.568v-2.221c0-1.24,0.523-1.568,1.96-1.568c2.221,0,2.874-0.587,2.874-2.154v-29.196
	c0-1.567-0.653-2.155-2.874-2.155c-1.437,0-1.96-0.327-1.96-1.567v-2.221c0-1.11,0.394-1.568,1.764-1.568h27.631
	c0.849,0,1.436,0.262,1.764,1.177c0.849,2.676,1.827,5.486,1.827,6.14c0,0.849-0.783,1.764-2.677,1.764
	c-5.227,0-3.397-3.464-10.319-3.464h-7.84V1453.513z"/>
<path fill="#F0E9D3" d="M1638.431,1453.513h8.165c3.789,0,1.372-1.896,5.878-1.896c1.896,0,2.287,0.262,2.811,1.697
	c1.24,3.527,2.219,6.01,2.219,7.055c0,0.652-0.455,0.851-3.396,0.851c-4.376,0-2.482-2.091-7.382-2.091h-8.295v14.632h9.472
	c9.601,0,6.01-3.855,11.168-3.855c2.874,0,3.332,0.392,3.332,1.372c0,0.85-1.24,3.266-2.48,6.27c-0.59,1.438-1.309,1.83-5.291,1.83
	h-26.586c-1.37,0-1.764-0.458-1.764-1.568v-2.221c0-1.24,0.523-1.568,1.959-1.568c2.222,0,2.875-0.587,2.875-2.154v-29.196
	c0-1.567-0.653-2.155-2.875-2.155c-1.436,0-1.959-0.327-1.959-1.567v-2.221c0-1.11,0.394-1.568,1.764-1.568h27.631
	c0.849,0,1.436,0.262,1.763,1.177c0.85,2.676,1.828,5.486,1.828,6.14c0,0.849-0.783,1.764-2.677,1.764
	c-5.227,0-3.397-3.464-10.319-3.464h-7.84V1453.513z"/>
<path fill="#F0E9D3" d="M1674.477,1479.377c-1.242,0-1.634-0.458-1.634-1.372v-2.612c0-0.85,0.523-1.373,2.679-1.373
	c2.546,0,2.939-0.914,2.939-2.808v-29.72h-2.482c-6.793,0-4.442,2.417-9.08,2.417c-2.416,0-2.612-0.325-2.612-1.044
	c0-1.111,1.24-4.115,2.612-8.165c0.196-0.653,0.72-0.979,2.679-0.979c3.136,0,2.482,2.154,6.01,2.154h15.021
	c5.486,0,2.744-2.091,7.25-2.091c2.221,0,2.679,0.59,2.679,1.438c0,0.457-0.979,3.331-2.417,7.575
	c-0.392,1.11-0.979,1.242-3.069,1.242c-4.377,0-0.392-2.549-7.055-2.549h-2.221v29.72c0,1.894,0.394,2.808,2.939,2.808
	c2.155,0,2.679,0.523,2.679,1.373v2.612c0,0.914-0.392,1.372-1.634,1.372H1674.477z"/>
</svg>
